<svg xmlns="http://www.w3.org/2000/svg" viewBox="0 0 687 123">
  <path fill="#353535" d="M34.498 18.139c-3.45.328-6.777.492-9.98.492h-2.71c-.822 0-1.48.041-1.972.124-4.6 13.306-8.296 26.654-11.089 40.042a910.248 910.248 0 00-7.146 39.427c-.493 3.86-.862 6.037-1.109 6.53v.123h1.355c2.054-.082 3.861-.082 5.422 0 1.642.082 2.751.123 3.326.123.657 0 1.068-.041 1.232-.123.822-.164 1.56-1.684 2.218-4.559.657-2.957 1.355-6.694 2.095-11.212.575-3.285.862-4.97.862-5.051h5.175c6.16 0 11.13.082 14.908.246.986 3.121 2.094 7.105 3.326 11.951.986 4.025 1.766 6.859 2.341 8.502h.124c.575.164 1.52.328 2.833.492.986.165 1.93.247 2.834.247 1.807 0 3.573-.164 5.298-.493v-.123C49.077 82.782 42.63 53.869 34.498 18.139zM23.286 74.445c-.986-.083-2.3-.124-3.943-.124h-2.464l1.109-6.16c1.56-8.543 2.916-15.606 4.066-21.192 1.15-5.585 2.053-9.158 2.71-10.719.657-1.643 1.479-2.464 2.464-2.464.493 0 1.11.123 1.848.37.904.903 3.655 14.292 8.255 40.165-4.107.082-8.789.124-14.045.124zM67.986 65.574c-.164 4.27-.246 7.228-.246 8.87 0 5.34.533 9.487 1.601 12.444 1.068 2.957 3.163 5.052 6.284 6.284 2.218.493 4.23.74 6.037.74 5.667 0 9.857-2.054 12.567-6.161 2.71-4.107 4.025-10.021 3.943-17.742a27.4 27.4 0 002.464.123c.821-.082 1.52-.123 2.094-.123.74-.082 1.766-.123 3.081-.123 1.56 0 2.669.082 3.326.246.74 2.793 1.109 5.545 1.109 8.255 0 4.928-1.068 9.528-3.203 13.8-2.136 4.189-5.175 7.556-9.118 10.102-3.86 2.547-8.254 3.902-13.183 4.066-1.56.247-3.162.37-4.805.37-5.914 0-11.13-1.396-15.647-4.189-4.436-2.793-6.941-6.982-7.516-12.567-.41-8.214-.616-17.003-.616-26.367 0-4.353.041-7.762.123-10.226l.123-14.908c0-5.093 1.273-9.61 3.82-13.553 2.628-4.025 6.16-6.653 10.596-7.885a30.97 30.97 0 019.856-1.602c5.421 0 10.39 1.396 14.908 4.19 4.518 2.71 8.091 6.447 10.719 11.211 2.711 4.682 4.066 9.816 4.066 15.401 0 2.3-.246 4.64-.739 7.023-2.464.41-4.435.616-5.914.616-1.643 0-3.614-.247-5.914-.74v-3.942c0-4.435-.452-8.009-1.355-10.72-.904-2.71-2.957-4.886-6.16-6.53-2.218-1.56-5.545-2.34-9.98-2.34-1.314 0-2.341.041-3.08.123-3.286.164-5.668 2.546-7.147 7.146-1.478 4.6-2.135 12.075-1.97 22.424l-.124 6.284zM113.731 18.262c0 3.039.041 5.873.123 8.501.082 2.629.246 4.19.493 4.682.246.082 1.683.123 4.312.123 7.392.165 11.951.493 13.676.986v.493c.411 14.703.698 27.927.862 39.673.083 2.957.124 6.858.124 11.704 0 4.271-.041 7.228-.124 8.871v7.516c0 .986-.041 1.889-.123 2.711 0 .739.041 1.273.123 1.601 1.643-.328 4.066-.493 7.27-.493 3.039 0 5.298-.123 6.776-.369v-.247c-.246-10.103-.493-25.996-.739-47.681-.082-1.643-.123-3.737-.123-6.284 0-10.596.041-16.14.123-16.633a2.283 2.283 0 000-1.478h3.203c2.629 0 5.257-.082 7.886-.246 3.285-.083 5.831.04 7.638.37.411-3.122.616-6.08.616-8.872 0-1.807-.041-3.08-.123-3.82-7.803-.903-17.701-1.355-29.693-1.355l-11.458.124c-2.382.082-5.996.123-10.842.123zM176.364 18.015a198.894 198.894 0 00-1.109 21.192l.124 10.966.369 21.068c.082 2.71.124 6.694.124 11.951 0 8.625-.165 16.058-.493 22.301a18.735 18.735 0 013.08-.247l6.776.124c2.629 0 4.272-.247 4.929-.74-.329-8.296-.493-17.66-.493-28.091 0-11.17.123-22.218.369-33.143.165-11.006.247-19.18.247-24.518v-.493a774.686 774.686 0 01-8.378-.493c-1.643-.164-2.793-.246-3.45-.246-.822 0-1.52.04-2.095.123v.246zM241.882 20.11h-.123v.123a667.104 667.104 0 00-4.682 19.22 2722.019 2722.019 0 00-3.08 13.553c-.411 1.643-1.438 6.16-3.081 13.553a599.97 599.97 0 01-5.051 20.822 253.93 253.93 0 01-6.53-27.352c-1.643-9.2-3.162-18.892-4.559-29.077-.985-6.489-1.56-10.185-1.725-11.089-.985-.164-2.341-.246-4.065-.246-1.808 0-3.491.123-5.052.37-1.478.164-2.423.493-2.834.985v.124c2.793 18.563 5.339 33.512 7.639 44.847 2.382 11.335 5.791 24.19 10.226 38.564 1.232.493 3.655.739 7.27.739.985 0 2.012-.082 3.08-.246 1.15-.082 1.971-.123 2.464-.123 4.518-14.867 8.501-28.708 11.951-41.521 3.45-12.896 6.859-27.106 10.226-42.63-1.725-.329-4.271-.493-7.639-.493-2.135 0-3.614-.04-4.435-.123zM284.282 18.139c-3.45.328-6.777.492-9.98.492h-2.711c-.821 0-1.478.041-1.971.124-4.6 13.306-8.296 26.654-11.089 40.042a911.94 911.94 0 00-7.146 39.427c-.493 3.86-.862 6.037-1.109 6.53v.123h1.356c2.053-.082 3.86-.082 5.421 0 1.643.082 2.751.123 3.326.123.658 0 1.068-.041 1.233-.123.821-.164 1.56-1.684 2.217-4.559.657-2.957 1.356-6.694 2.095-11.212.575-3.285.862-4.97.862-5.051h5.175c6.16 0 11.13.082 14.908.246.986 3.121 2.095 7.105 3.327 11.951.985 4.025 1.766 6.859 2.341 8.502h.123c.575.164 1.519.328 2.834.492.985.165 1.93.247 2.833.247 1.807 0 3.573-.164 5.298-.493v-.123c-4.764-22.095-11.212-51.008-19.343-86.738zM273.07 74.445c-.986-.083-2.3-.124-3.943-.124h-2.464l1.109-6.16c1.561-8.543 2.916-15.606 4.066-21.192 1.15-5.585 2.053-9.158 2.71-10.719.657-1.643 1.479-2.464 2.464-2.464.493 0 1.109.123 1.849.37.903.903 3.655 14.292 8.255 40.165-4.107.082-8.789.124-14.046.124zM298.783 18.262c0 3.039.041 5.873.123 8.501.082 2.629.246 4.19.493 4.682.246.082 1.684.123 4.312.123 7.392.165 11.951.493 13.676.986v.493c.411 14.703.698 27.927.863 39.673.082 2.957.123 6.858.123 11.704 0 4.271-.041 7.228-.123 8.871v7.516c0 .986-.042 1.889-.124 2.711 0 .739.041 1.273.124 1.601 1.642-.328 4.065-.493 7.269-.493 3.039 0 5.298-.123 6.776-.369v-.247c-.246-10.103-.493-25.996-.739-47.681-.082-1.643-.123-3.737-.123-6.284 0-10.596.041-16.14.123-16.633a2.283 2.283 0 000-1.478h3.203c2.629 0 5.257-.082 7.886-.246 3.285-.083 5.831.04 7.639.37.41-3.122.616-6.08.616-8.872 0-1.807-.042-3.08-.124-3.82-7.803-.903-17.7-1.355-29.693-1.355l-11.458.124c-2.382.082-5.996.123-10.842.123zM403.923 94.28c-2.3 0-6.078-.081-11.335-.246-9.199-.41-16.756-.575-22.67-.492l-.123-.124c.082-1.889.082-3.942 0-6.16v-5.051c-.083-1.232-.124-2.998-.124-5.298 0-3.45.165-6.12.493-8.009.411-.246 2.464-.452 6.161-.616 2.135-.082 4.435-.123 6.899-.123 1.479 0 2.793-.041 3.943-.123 1.15-.082 2.669-.206 4.559-.37a38.34 38.34 0 01-.124-2.957c.082-.986.124-1.848.124-2.587 0-2.218-.083-3.943-.247-5.175v-.123c-2.382-.165-5.462-.247-9.24-.247-4.436 0-8.625-.04-12.568-.123l-.123-.123c-.328-1.232-.493-3.121-.493-5.668 0-1.067.082-3.655.247-7.762.41-5.42.534-9.158.369-11.211l.493-.124c3.368-.246 7.434-.37 12.198-.37H393.081c4.517 0 9.733-.205 15.647-.615V29.35l.123-3.697c.083-.739.124-1.93.124-3.573 0-1.232-.041-2.135-.124-2.71 0-.247-2.998-.37-8.994-.37-12.813 0-26.818.37-42.014 1.109-.492 7.885-.739 17.742-.739 29.57 0 5.914.082 14.949.247 27.105.246 9.118.369 18.317.369 27.599 4.846.411 10.801.616 17.865.616 3.286 0 8.132-.082 14.539-.246 8.132-.165 14.169-.206 18.111-.124.575-2.464.781-5.873.616-10.226v-.246l-4.928.123z"/>
  <g>
    <path fill="#353535" d="M548.648 65.574c-.164 4.27-.246 7.228-.246 8.87 0 5.34.534 9.487 1.602 12.444 1.067 2.957 3.162 5.052 6.283 6.284 2.218.493 4.23.74 6.037.74 5.668 0 9.857-2.054 12.567-6.161 2.711-4.107 4.025-10.021 3.943-17.742a27.41 27.41 0 002.464.123 21.6 21.6 0 012.095-.123c.739-.082 1.766-.123 3.08-.123 1.561 0 2.669.082 3.327.246.739 2.793 1.108 5.545 1.108 8.255 0 4.928-1.067 9.528-3.203 13.8-2.136 4.189-5.175 7.556-9.117 10.102-3.861 2.547-8.255 3.902-13.184 4.066-1.56.247-3.162.37-4.805.37-5.914 0-11.129-1.396-15.647-4.189-4.435-2.793-6.941-6.982-7.516-12.567-.41-8.214-.616-17.003-.616-26.367 0-4.353.041-7.762.124-10.226l.123-14.908c0-5.093 1.273-9.61 3.819-13.553 2.629-4.025 6.161-6.653 10.596-7.885a30.97 30.97 0 019.857-1.602c5.421 0 10.39 1.396 14.908 4.19 4.517 2.71 8.09 6.447 10.719 11.211 2.71 4.682 4.066 9.816 4.066 15.401 0 2.3-.247 4.64-.74 7.023-2.464.41-4.435.616-5.914.616-1.642 0-3.614-.247-5.913-.74v-3.942c0-4.435-.452-8.009-1.356-10.72-.903-2.71-2.957-4.886-6.16-6.53-2.218-1.56-5.545-2.34-9.98-2.34-1.314 0-2.341.041-3.08.123-3.286.164-5.668 2.546-7.146 7.146-1.479 4.6-2.136 12.075-1.972 22.424l-.123 6.284zM647.619 18.015c-.493-.082-1.356-.123-2.588-.123-3.285 0-6.078.288-8.378.863.164 10.35.247 17.413.247 21.191 0 3.614-.083 8.954-.247 16.017h-.123c-4.682.411-9.857.616-15.524.616-4.518 0-8.05-.082-10.596-.246h-.123c-.493-3.778-.863-8.008-1.109-12.69-.164-4.682-.288-7.516-.37-8.502a272.54 272.54 0 00-.739-15.893c-.575-.165-1.52-.247-2.834-.247l-3.942.123c-.74 0-1.684-.082-2.834-.246h-.247l-.123.123c-.082 2.628-.123 7.023-.123 13.183 0 12.568.205 26.326.616 41.275.411 14.867.821 25.34 1.232 31.418a5.046 5.046 0 011.602-.247l2.71.124c1.315.164 2.382.246 3.204.246 1.396 0 2.464-.164 3.203-.493.082-1.725.123-3.901.123-6.53l-.123-13.553c0-5.914.082-11.212.247-15.894 4.599-.492 8.912-.739 12.936-.739 2.957 0 5.709.124 8.255.37h5.668c.246 4.517.452 10.062.616 16.633 0 2.875.082 5.914.246 9.117.165 3.122.452 6.695.863 10.719h5.051c3.039 0 5.216-.123 6.53-.369l-3.326-86.246zM663.885 18.015a198.894 198.894 0 00-1.109 21.192l.123 10.966.37 21.068c.082 2.71.123 6.694.123 11.951 0 8.625-.164 16.058-.493 22.301a18.753 18.753 0 013.08-.247l6.777.124c2.628 0 4.271-.247 4.928-.74-.328-8.296-.493-17.66-.493-28.091 0-11.17.124-22.218.37-33.143.164-11.006.246-19.18.246-24.518v-.493a777.774 777.774 0 01-8.378-.493c-1.643-.164-2.792-.246-3.45-.246-.821 0-1.519.04-2.094.123v.246z"/>
  </g>
  <path fill="#F86849" d="M426.895 85.879l5.605-7.066 21.765-19.805L446 52.5l-19.105-20.362L449.5 37l14.388 5.386L469 17l4.386-11.732L478.5 33l4.51 11.5L501.5 37l18.503-4.862L498.5 51l-5.867 8.008L507 71l5.807 7.814 7.196 7.065L494.5 78.02l-11.49-2.39L476 100l-2.614 12.749-9.498-34.728L459 76.5l-32.105 9.379z"/>
</svg>
