<svg xmlns="http://www.w3.org/2000/svg" fill="currentColor" viewBox="0 0 24 24">
  <path fill-rule="evenodd" d="M13.477 3.453a5 5 0 017.07 7.07l-.012.012-4 4a5 5 0 01-7.07 0 1 1 0 111.414-1.414 3 3 0 004.242 0l3.993-3.993a3 3 0 00-4.242-4.242L13.78 5.979a1 1 0 11-1.414-1.414l1.1-1.1.012-.012zM7.465 9.465a5 5 0 017.07 0 1 1 0 11-1.414 1.414 3 3 0 00-4.242 0l-4 4-.012.013a3 3 0 104.242 4.242l.012-.013 1.102-1.101a1 1 0 011.414 1.415L10.54 20.53a5 5 0 11-7.07-7.07l3.994-3.995z" clip-rule="evenodd"/>
</svg>
