<svg xmlns="http://www.w3.org/2000/svg" viewBox="0 0 330 176">
    <path fill="#8CCBD9" d="M9.645 41.635a1 1 0 01-.982-.808L1.233 2.873a1 1 0 01.982-1.192h4.734a1 1 0 01.984.824l3.872 21.662c.193 1.077 1.728 1.107 1.962.037l4.748-21.736a1 1 0 01.977-.787h6.256a1 1 0 01.98.799l4.542 22.043c.222 1.077 1.768 1.058 1.963-.024l3.974-21.995a1 1 0 01.984-.823h4.596a1 1 0 01.98 1.196l-7.56 37.953a1 1 0 01-.98.805h-5.406a1 1 0 01-.977-.787l-5.388-24.603c-.23-1.05-1.726-1.048-1.954.001l-5.342 24.6a1 1 0 01-.977.789H9.645zM48.44 41.635a1 1 0 01-1-1V2.68a1 1 0 011-1h4.595a1 1 0 011 1v13.725a1 1 0 001 1h10.972a1 1 0 001-1V2.681a1 1 0 011-1h4.623a1 1 0 011 1v37.953a1 1 0 01-1 1h-4.623a1 1 0 01-1-1V25.166a1 1 0 00-1-1H55.035a1 1 0 00-1 1v15.47a1 1 0 01-1 1h-4.596zM90.055 41.635a1 1 0 01-1-1V25.063a1 1 0 00-.112-.46L77.82 3.14a1 1 0 01.888-1.46h5.47a1 1 0 01.9.562l6.531 13.387a1 1 0 001.8-.007L99.82 2.25a1 1 0 01.902-.568h5.328a1 1 0 01.887 1.461L95.763 24.657a1 1 0 00-.113.461v15.517a1 1 0 01-1 1h-4.595zM150.326 40.323a1 1 0 01-.95 1.312h-5.082a1 1 0 01-.953-.7l-2.421-7.677a1 1 0 00-.954-.699h-11.602a1 1 0 00-.958.715l-2.273 7.645a1 1 0 01-.959.716h-4.916a1 1 0 01-.953-1.305l12.116-37.953a1 1 0 01.953-.696h5.549a1 1 0 01.95.689l12.453 37.953zm-13.1-14.495a1 1 0 00.957-1.29l-3.143-10.362c-.288-.948-1.631-.946-1.915.003l-3.105 10.362a1 1 0 00.958 1.287h6.248zM155.272 41.635a1 1 0 01-1-1V2.68a1 1 0 011-1h12.926c3.561 0 6.105.364 7.631 1.09 1.526.709 2.78 1.954 3.761 3.734.981 1.763 1.472 3.88 1.472 6.35 0 3.125-.754 5.642-2.262 7.55-1.05 1.343-2.414 2.335-4.094 2.975-.826.316-1.096 1.516-.45 2.12.63.59 1.19 1.208 1.682 1.854.927 1.199 2.189 3.361 3.788 6.486l3.237 6.34a1 1 0 01-.891 1.455h-5.653a1 1 0 01-.875-.517l-4.512-8.177c-1.726-3.144-2.897-5.106-3.515-5.887-.618-.8-1.272-1.345-1.962-1.635-.691-.309-1.799-.463-3.325-.463h-.363a1 1 0 00-1 1v14.679a1 1 0 01-1 1h-4.595zm5.595-24.057a1 1 0 001 1h3.906c2.997 0 4.905-.127 5.723-.381.817-.273 1.48-.809 1.989-1.608.509-.8.763-1.862.763-3.189 0-1.272-.254-2.29-.763-3.052a3.87 3.87 0 00-2.071-1.608c-.618-.2-2.407-.3-5.369-.3h-4.178a1 1 0 00-1 1v8.138zM188.303 41.635a1 1 0 01-1-1V2.68a1 1 0 011-1h22.309a1 1 0 011 1v4.76a1 1 0 01-1 1h-15.714a1 1 0 00-1 1v6.856a1 1 0 001 1h14.461a1 1 0 011 1v4.732a1 1 0 01-1 1h-14.461a1 1 0 00-1 1v8.874a1 1 0 001 1h16.314a1 1 0 011 1v4.732a1 1 0 01-1 1h-22.909zM239.348 41.635a1 1 0 01-1-1V25.063c0-.16-.039-.318-.112-.46L227.113 3.14a1 1 0 01.888-1.46h5.47c.383 0 .732.218.899.562l6.532 13.387a1 1 0 001.801-.007l6.41-13.374a1 1 0 01.902-.568h5.328a1 1 0 01.887 1.461l-11.174 21.515a1 1 0 00-.113.461v15.517a1 1 0 01-1 1h-4.595zM258.951 21.903c0-4.76.7-8.675 2.099-11.746 1.417-3.089 3.261-5.387 5.532-6.895S271.606 1 274.84 1c4.687 0 8.503 1.79 11.446 5.369 2.962 3.58 4.442 8.675 4.442 15.289 0 6.686-1.562 11.91-4.687 15.67-2.744 3.325-6.468 4.988-11.174 4.988-4.742 0-8.485-1.645-11.228-4.933-3.125-3.761-4.688-8.92-4.688-15.48zm6.813-.272c0 4.596.873 8.048 2.617 10.356 1.744 2.29 3.906 3.434 6.486 3.434 2.598 0 4.751-1.136 6.459-3.407 1.708-2.29 2.562-5.796 2.562-10.52 0-4.633-.836-8.057-2.508-10.274-1.653-2.217-3.824-3.325-6.513-3.325s-4.878 1.117-6.568 3.352c-1.69 2.235-2.535 5.696-2.535 10.384zM295.852 2.681a1 1 0 011-1h4.595a1 1 0 011 1v20.64c0 3.36.082 5.55.245 6.567.291 1.763.982 3.125 2.072 4.088 1.108.963 2.561 1.445 4.36 1.445 1.526 0 2.771-.336 3.734-1.009.963-.69 1.617-1.635 1.962-2.834.364-1.217.545-3.815.545-7.794V2.68a1 1 0 011-1h4.623a1 1 0 011 1v19.985c0 5.36-.291 9.24-.872 11.637-.564 2.38-1.854 4.316-3.87 5.805-1.999 1.472-4.642 2.208-7.931 2.208-3.416 0-6.087-.609-8.012-1.826-1.908-1.236-3.298-2.962-4.17-5.178-.854-2.235-1.281-6.341-1.281-12.319V2.681z"/>
    <g>
      <path fill="#FCF9F7" d="M16.825 174.143a1 1 0 01-1-1v-38.145a1 1 0 00-1-1H5a1 1 0 01-1-1v-6.174a1 1 0 011-1h29.633a1 1 0 011 1v6.174a1 1 0 01-1 1H24.84a1 1 0 00-1 1v38.145a1 1 0 01-1 1h-6.016zM41.866 174.143a1 1 0 01-1-1v-46.319a1 1 0 011-1h6.016a1 1 0 011 1v17.018a1 1 0 001 1H63.65a1 1 0 001-1v-17.018a1 1 0 011-1h6.049a1 1 0 011 1v46.319a1 1 0 01-1 1h-6.05a1 1 0 01-1-1v-19.127a1 1 0 00-1-1H49.883a1 1 0 00-1 1v19.127a1 1 0 01-1 1h-6.016zM81.747 174.143a1 1 0 01-1-1v-46.319a1 1 0 011-1h6.016a1 1 0 011 1v46.319a1 1 0 01-1 1h-6.016zM94.57 159.398a.98.98 0 01.866-1.092l5.906-.694a1.037 1.037 0 011.127.85c1.039 5.532 3.879 8.298 8.519 8.298 2.429 0 4.34-.626 5.731-1.879 1.391-1.274 2.087-2.845 2.087-4.713 0-1.099-.243-2.032-.729-2.801-.486-.77-1.226-1.396-2.219-1.879-.994-.506-3.401-1.341-7.221-2.505-3.423-1.033-5.929-2.154-7.519-3.362-1.59-1.209-2.86-2.791-3.81-4.746-.927-1.978-1.39-4.098-1.39-6.361 0-2.637.595-5.01 1.788-7.12 1.215-2.109 2.882-3.702 5.002-4.779 2.119-1.077 4.736-1.615 7.85-1.615 4.681 0 8.336 1.263 10.964 3.79 2.442 2.349 3.816 5.637 4.122 9.865a.97.97 0 01-.927 1.031l-6.151.328c-.52.027-.97-.349-1.066-.861-.398-2.112-1.111-3.621-2.139-4.529-1.171-1.032-2.838-1.549-5.002-1.549-2.164 0-3.831.451-5.002 1.351-1.17.901-1.755 2.022-1.755 3.362 0 1.319.53 2.428 1.59 3.329 1.06.901 3.5 1.89 7.32 2.967 4.041 1.164 6.956 2.395 8.745 3.691 1.81 1.275 3.191 2.934 4.14 4.977.95 2.022 1.424 4.483 1.424 7.383 0 4.197-1.302 7.724-3.908 10.58-2.584 2.857-6.636 4.285-12.156 4.285-9.469 0-14.864-5.201-16.186-15.602zM159.554 174.143a1 1 0 01-1-1v-19.091a.99.99 0 00-.114-.462l-13.699-26.304a1 1 0 01.887-1.462h7.135a1 1 0 01.898.56l8.193 16.709a1 1 0 001.799-.006l8.043-16.697a1 1 0 01.901-.566h6.963a1 1 0 01.886 1.463l-13.763 26.368a.997.997 0 00-.114.463v19.025a1 1 0 01-1 1h-6.015zM186.218 174.143a1 1 0 01-1-1v-46.319a1 1 0 011-1h27.546a1 1 0 011 1v6.174a1 1 0 01-1 1h-19.53a1 1 0 00-1 1v8.712a1 1 0 001 1h18.006a1 1 0 011 1v6.141a1 1 0 01-1 1h-18.006a1 1 0 00-1 1v11.151a1 1 0 001 1h20.259a1 1 0 011 1v6.141a1 1 0 01-1 1h-28.275zM257.756 172.83a1 1 0 01-.95 1.313h-6.63a1 1 0 01-.953-.698l-3.036-9.58a1 1 0 00-.953-.698h-14.422a1 1 0 00-.958.714l-2.853 9.548a1 1 0 01-.958.714h-6.43a1 1 0 01-.952-1.305l14.86-46.319a.999.999 0 01.952-.695h7.06a1 1 0 01.95.687l15.273 46.319zm-15.724-17.804a1 1 0 00.957-1.291l-4.11-13.481c-.288-.947-1.628-.944-1.914.003l-4.059 13.481a1 1 0 00.957 1.288h8.169zM263.461 174.143a1 1 0 01-1-1v-46.319a1 1 0 011-1h15.926c4.329 0 7.42.439 9.275 1.318 1.855.857 3.379 2.363 4.571 4.516 1.193 2.131 1.789 4.691 1.789 7.68 0 3.779-.917 6.822-2.75 9.129-1.371 1.748-3.186 3.004-5.444 3.768-.839.284-1.106 1.476-.443 2.064.915.812 1.719 1.67 2.41 2.573 1.126 1.45 2.66 4.065 4.604 7.845l4.089 7.97a1 1 0 01-.89 1.456h-7.347c-.363 0-.698-.197-.875-.515l-5.544-9.999c-2.097-3.801-3.522-6.175-4.273-7.119-.75-.967-1.545-1.626-2.384-1.978-.84-.374-2.187-.56-4.041-.56h-.657a1 1 0 00-1 1v18.171a1 1 0 01-1 1h-6.016zm7.016-28.884a1 1 0 001 1h4.963c3.643 0 5.962-.154 6.955-.461.994-.33 1.8-.978 2.418-1.945.619-.967.928-2.252.928-3.856 0-1.538-.309-2.769-.928-3.692a4.693 4.693 0 00-2.517-1.944c-.751-.242-2.926-.363-6.525-.363h-5.294a1 1 0 00-1 1v10.261zM316.931 160.666a1.02 1.02 0 01-1.012 1.018h-4.921a.999.999 0 01-.999-.984l-.018-1.125c0-2.835.375-5.131 1.126-6.889.751-1.758 2.208-3.691 4.372-5.801 2.407-2.373 3.854-3.999 4.34-4.878.485-.879.728-1.9.728-3.065 0-1.912-.629-3.483-1.888-4.713-1.236-1.231-2.804-1.846-4.703-1.846-3.837 0-6.291 2.394-7.362 7.183-.119.53-.619.893-1.156.812l-5.13-.774a.964.964 0 01-.83-1.036c.352-3.724 1.755-6.808 4.209-9.25 2.672-2.659 6.018-3.988 10.037-3.988 4.085 0 7.486 1.329 10.202 3.988 2.716 2.658 4.074 5.976 4.074 9.954a12.33 12.33 0 01-1.424 5.768c-.95 1.801-2.992 4.273-6.128 7.416-1.612 1.626-2.617 2.933-3.014 3.922-.324.851-.491 2.281-.503 4.288zm-5.917 13.477a1 1 0 01-1-1v-7.262a1 1 0 011-1h5.652a1 1 0 011 1v7.262a1 1 0 01-1 1h-5.652z"/>
    </g>
    <g>
      <path fill="#F86849" d="M58.922 64.953a1 1 0 00-.891-1.454H46.239a1 1 0 00-.903.57L30.805 94.52a1 1 0 01-1.806-.001L14.532 64.07a1 1 0 00-.903-.57H1.614a1 1 0 00-.895 1.445l21.878 44.001a1 1 0 00.895.555h12.133a1 1 0 00.891-.547l22.406-44zM121.901 86.466c0-15.538-13.572-24.466-29.9-24.466s-29.9 8.928-29.9 24.466C62.1 102.072 75.673 111 92 111s29.9-8.928 29.9-24.534zm-13.09 0c0 8.246-5.65 13.494-16.81 13.494-11.092 0-16.742-5.248-16.742-13.494 0-8.178 5.65-13.494 16.742-13.494 11.16 0 16.81 5.316 16.81 13.494zM174.927 64.5a1 1 0 00-1-1h-46.984a1 1 0 00-1 1v9.517a1 1 0 001 1h16.188a1 1 0 011 1V108.5a1 1 0 001 1h10.539a1 1 0 001-1V76.017a1 1 0 011-1h16.257a1 1 0 001-1v-9.518zM194.85 64.5a1 1 0 00-1-1h-10.539a1 1 0 00-1 1V108.5a1 1 0 001 1h10.539a1 1 0 001-1V64.499zM261.69 64.5a1 1 0 00-1-1h-11.228a1 1 0 00-1 1v25.254c0 .894-1.084 1.338-1.712.702l-26.309-26.66a1.002 1.002 0 00-.712-.297h-11.948a1 1 0 00-1 1v44.002a1 1 0 001 1h11.228a1 1 0 001-1V82.008c0-.902 1.1-1.343 1.723-.69l26.642 27.874a.998.998 0 00.722.309h11.594a1 1 0 001-1V64.499zM326.573 69.11c.244-.44.123-.996-.307-1.26-4.249-2.597-14.739-5.85-26.203-5.85-15.433 0-28.522 8.928-28.522 24.466 0 15.606 12.263 24.534 27.833 24.534 13.939 0 22.43-2.256 26.506-4.424a.958.958 0 00.5-.853V85.217a1 1 0 00-1-1h-20.046a1 1 0 00-1 1v8.154a1 1 0 001 1h7.852a1 1 0 011 1v1.768a.866.866 0 01-.336.71c-2.544 1.862-8.907 2.11-13.512 2.11-10.403 0-15.914-5.247-15.914-13.493 0-8.178 5.856-13.494 15.639-13.494 6.811 0 12.924 1.444 20.044 5.659.492.29 1.131.125 1.407-.375l5.059-9.145z"/>
    </g>
    <path fill="#353535" fill-rule="evenodd" d="M47.238 62.5h11.793c1.493 0 2.46 1.576 1.782 2.907l-22.406 44.001a2 2 0 01-1.782 1.093H24.492a2 2 0 01-1.79-1.11L.822 65.39a2 2 0 011.79-2.89H14.63a2 2 0 011.806 1.141L30.902 94.09l14.531-30.452a2 2 0 011.805-1.139zm67.445 5.113c5.668 4.354 9.217 10.758 9.217 18.853 0 8.127-3.548 14.548-9.217 18.912C109.039 109.723 101.335 112 93 112c-8.334 0-16.037-2.277-21.682-6.622-5.67-4.364-9.217-10.785-9.217-18.912 0-8.095 3.55-14.499 9.218-18.853C76.963 63.277 84.665 61 93 61c8.335 0 16.038 2.277 21.683 6.613zm-9.733 27.924c2.542-2.12 3.861-5.192 3.861-9.071 0-3.844-1.318-6.916-3.862-9.047-2.569-2.151-6.513-3.447-11.948-3.447-5.4 0-9.327 1.295-11.887 3.446-2.537 2.131-3.855 5.204-3.855 9.048 0 3.88 1.319 6.951 3.853 9.072 2.56 2.142 6.486 3.422 11.889 3.422 5.438 0 9.382-1.28 11.949-3.423zM127.943 62.5h46.984a2 2 0 012 2v9.518a2 2 0 01-2 2H158.67V108.5a2 2 0 01-2 2h-10.539a2 2 0 01-2-2V76.017h-16.188a2 2 0 01-2-2v-9.518a2 2 0 012-2zm56.368 0h10.539a2 2 0 012 2v44.002a2 2 0 01-2 2h-10.539a2 2 0 01-2-2V64.499a2 2 0 012-2zm66.151 0h11.228a2 2 0 012 2v44.002a2 2 0 01-2 2h-11.594a2.005 2.005 0 01-1.446-.618l-26.641-27.875v26.493a2 2 0 01-2 2h-11.228a2 2 0 01-2-2V64.499a2 2 0 012-2h11.948a2 2 0 011.423.595l26.31 26.66V64.499a2 2 0 012-2zm50.6-1.499c11.603 0 22.284 3.282 26.725 5.997.929.568 1.139 1.732.66 2.598l-5.058 9.145a2.016 2.016 0 01-2.791.751c-6.964-4.121-12.901-5.519-19.536-5.519-4.717 0-8.37 1.28-10.829 3.433-2.445 2.14-3.809 5.225-3.809 9.06 0 3.89 1.291 6.968 3.714 9.087 2.441 2.135 6.156 3.408 11.2 3.408 2.291 0 4.986-.063 7.411-.35 2.425-.288 4.377-.782 5.437-1.514V95.37h-7.852a2 2 0 01-2-2v-8.154a2 2 0 012-2h20.046a2 2 0 012 2v20.506c0 .701-.368 1.384-1.03 1.736-4.281 2.277-12.959 4.541-26.976 4.541-7.968 0-15.169-2.284-20.397-6.647-5.247-4.379-8.437-10.798-8.437-18.887 0-8.08 3.416-14.48 8.848-18.84C285.799 63.284 293.164 61 301.062 61zM93 62c16.328 0 29.9 8.928 29.9 24.466C122.9 102.072 109.328 111 93 111c-16.327 0-29.9-8.928-29.9-24.534C63.1 70.928 76.674 62 93 62zm0 37.96c11.161 0 16.811-5.248 16.811-13.494 0-8.178-5.65-13.494-16.81-13.494-11.092 0-16.742 5.316-16.742 13.494 0 8.246 5.65 13.494 16.742 13.494zM59.03 63.5a1 1 0 01.892 1.453l-22.406 44.001a1 1 0 01-.891.547H24.492a1 1 0 01-.895-.555L1.718 64.945a1 1 0 01.896-1.446h12.015a1 1 0 01.903.571L29.998 94.52a1 1 0 001.806.001L46.336 64.07a1 1 0 01.902-.57h11.793zm116.897 1a1 1 0 00-1-1h-46.984a1 1 0 00-1 1v9.517a1 1 0 001 1h16.188a1 1 0 011 1V108.5a1 1 0 001 1h10.539a1 1 0 001-1V76.017a1 1 0 011-1h16.257a1 1 0 001-1v-9.518zm18.923-1a1 1 0 011 1V108.5a1 1 0 01-1 1h-10.539a1 1 0 01-1-1V64.499a1 1 0 011-1h10.539zm67.84 1a1 1 0 00-1-1h-11.228a1 1 0 00-1 1v25.254c0 .894-1.084 1.338-1.712.702l-26.31-26.66a1 1 0 00-.711-.297h-11.948a1 1 0 00-1 1v44.002a1 1 0 001 1h11.228a1 1 0 001-1V82.008c0-.902 1.1-1.343 1.723-.69l26.641 27.874c.189.197.45.309.723.309h11.594a1 1 0 001-1V64.499zm64.575 3.35c.431.264.552.82.307 1.26l-5.058 9.146c-.277.5-.915.665-1.407.374-7.12-4.214-13.233-5.658-20.045-5.658-9.783 0-15.638 5.316-15.638 13.494 0 8.246 5.511 13.494 15.914 13.494 4.604 0 10.967-.249 13.512-2.11a.866.866 0 00.336-.711V95.37a1 1 0 00-1-1h-7.852a1 1 0 01-1-1v-8.154a1 1 0 011-1h20.046a1 1 0 011 1v20.506a.958.958 0 01-.5.853c-4.076 2.168-12.567 4.424-26.506 4.424-15.571 0-27.834-8.928-27.834-24.534C272.54 70.928 285.63 62 301.062 62c11.464 0 21.954 3.253 26.203 5.85z" clip-rule="evenodd"/>
    <g>
      <path fill="#353535" fill-rule="evenodd" d="M181.617 33.385l3.236 6.34c.679 1.33-.287 2.91-1.781 2.91h-5.653a2 2 0 01-1.751-1.034l-4.512-8.179c-1.739-3.165-2.869-5.046-3.424-5.748l-.007-.008c-.547-.71-1.073-1.121-1.559-1.326l-.01-.004-.01-.004c-.488-.219-1.417-.377-2.917-.377h-.362v14.68a2 2 0 01-2 2h-4.595a2 2 0 01-2-2V2.68a2 2 0 012-2h12.926c3.577 0 6.314.357 8.056 1.185 1.754.816 3.15 2.23 4.211 4.155 1.079 1.94 1.596 4.232 1.596 6.834 0 3.285-.794 6.039-2.476 8.168-1.167 1.493-2.683 2.59-4.522 3.292-.042.015-.125.08-.157.229-.031.146.019.213.033.227a15.935 15.935 0 011.792 1.973c.988 1.28 2.286 3.516 3.886 6.641zm-4.679-6.031a14.939 14.939 0 00-1.682-1.853c-.646-.605-.376-1.806.45-2.12 1.68-.641 3.044-1.633 4.093-2.977 1.508-1.907 2.262-4.424 2.262-7.549 0-2.47-.49-4.587-1.471-6.35-.981-1.78-2.235-3.025-3.761-3.734-1.526-.726-4.07-1.09-7.631-1.09h-12.926a1 1 0 00-1 1v37.953a1 1 0 001 1h4.595a1 1 0 001-1V25.957a1 1 0 011-1h.362c1.527 0 2.635.154 3.325.463.691.29 1.345.836 1.963 1.635.617.781 1.789 2.744 3.515 5.887l4.512 8.176a1 1 0 00.875.518h5.653a1 1 0 00.89-1.455l-3.236-6.34c-1.599-3.125-2.862-5.287-3.788-6.486zm-3.285-16.451l-.006-.01a2.87 2.87 0 00-1.545-1.203c-.171-.054-.647-.126-1.549-.176a66.085 66.085 0 00-3.508-.074h-4.178v8.138h3.905c1.488 0 2.69-.031 3.613-.093.938-.062 1.514-.152 1.804-.24.574-.194 1.056-.57 1.452-1.193.374-.587.607-1.443.607-2.652 0-1.148-.231-1.95-.595-2.498zm-1.157 7.294c-.818.254-2.726.381-5.724.381h-3.905a1 1 0 01-1-1V9.44a1 1 0 011-1h4.178c2.961 0 4.751.1 5.369.3a3.87 3.87 0 012.071 1.608c.509.763.763 1.78.763 3.052 0 1.326-.254 2.39-.763 3.189-.509.8-1.172 1.335-1.989 1.608zM314.859 31.3l.003-.009c.148-.498.279-1.36.369-2.645.089-1.267.134-2.886.134-4.863V2.68a2 2 0 012-2h4.623a2 2 0 012 2v19.985c0 5.37-.289 9.35-.901 11.873-.62 2.614-2.047 4.748-4.247 6.374h-.002c-2.218 1.634-5.09 2.403-8.523 2.403-3.517 0-6.4-.624-8.547-1.98l-.009-.007c-2.092-1.354-3.612-3.25-4.557-5.651l-.004-.01c-.927-2.426-1.346-6.705-1.346-12.675V2.681a2 2 0 012-2h4.595a2 2 0 012 2v20.64c0 3.38.084 5.485.233 6.409.262 1.585.864 2.717 1.743 3.494.887.77 2.089 1.197 3.701 1.197 1.379 0 2.405-.303 3.156-.825.767-.551 1.293-1.301 1.579-2.295zm-1.001 3.111c-.963.673-2.208 1.009-3.734 1.009-1.799 0-3.252-.482-4.36-1.445-1.091-.963-1.781-2.325-2.072-4.088-.163-1.017-.245-3.206-.245-6.568V2.681a1 1 0 00-1-1h-4.595a1 1 0 00-1 1v20.312c0 5.978.427 10.084 1.281 12.319.872 2.216 2.262 3.942 4.169 5.178 1.926 1.217 4.597 1.826 8.013 1.826 3.288 0 5.932-.736 7.931-2.208 2.016-1.49 3.306-3.424 3.869-5.805.582-2.398.873-6.277.873-11.637V2.681a1 1 0 00-1-1h-4.623a1 1 0 00-1 1v21.103c0 3.979-.182 6.577-.545 7.794-.345 1.2-.999 2.144-1.962 2.834zM8.682 41.02L1.252 3.066A2 2 0 013.215.68h4.734A2 2 0 019.918 2.33l3.872 21.662 4.748-21.737A2 2 0 0120.492.681h6.256a2 2 0 011.96 1.597l4.541 22.043 3.974-21.995A2 2 0 0139.19.68h4.595a2 2 0 011.962 2.391l-7.56 37.953a2 2 0 01-1.961 1.61H30.82a2 2 0 01-1.954-1.573L23.479 16.46l-5.342 24.6a2 2 0 01-1.954 1.576h-5.538a2 2 0 01-1.963-1.616zm38.757-.384V2.68a2 2 0 012-2h4.595a2 2 0 012 2v13.725h10.973V2.681a2 2 0 012-2h4.622a2 2 0 012 2v37.953a2 2 0 01-2 2h-4.622a2 2 0 01-2-2V25.166H56.034v15.47a2 2 0 01-2 2H49.44a2 2 0 01-2-2zm41.616 0V25.063L77.932 3.602c-.69-1.332.276-2.92 1.776-2.92h5.47a2 2 0 011.798 1.122l6.532 13.387 6.41-13.374A2 2 0 01101.722.68h5.328c1.5 0 2.466 1.59 1.775 2.922L97.65 25.118v15.517a2 2 0 01-2 2h-4.595a2 2 0 01-2-2zm61.32 2h-5.081a1.999 1.999 0 01-1.907-1.4l-2.421-7.676h-11.602l-2.273 7.645a2 2 0 01-1.917 1.43h-4.916a2 2 0 01-1.906-2.608l12.116-37.953a2 2 0 011.906-1.392h5.549a2 2 0 011.9 1.377l12.453 37.953a2 2 0 01-1.901 2.623zm-12.15-17.807l-3.142-10.362-3.105 10.362h6.247zm49.077 15.807V2.68a2 2 0 012-2h22.31a2 2 0 012 2v4.76a2 2 0 01-2 2h-15.714v6.856h14.461a2 2 0 012 2v4.732a2 2 0 01-2 2h-14.461v8.874h16.314a2 2 0 012 2v4.732a2 2 0 01-2 2h-22.91a2 2 0 01-2-2zm51.046 0V25.063L227.225 3.602c-.69-1.332.276-2.92 1.776-2.92h5.47a2 2 0 011.798 1.122l6.532 13.387 6.41-13.374A2 2 0 01251.015.68h5.327c1.501 0 2.467 1.59 1.775 2.922l-11.174 21.515v15.517a2 2 0 01-2 2h-4.595a2 2 0 01-2-2zm-227.703 1a1 1 0 01-.982-.808L2.233 2.873a1 1 0 01.982-1.192h4.734a1 1 0 01.984.824l3.872 21.662c.193 1.077 1.728 1.107 1.961.037l4.75-21.736a1 1 0 01.976-.787h6.256a1 1 0 01.98.799l4.542 22.043c.222 1.077 1.768 1.058 1.963-.024l3.974-21.995a1 1 0 01.984-.823h4.595a1 1 0 01.981 1.196l-7.56 37.953a1 1 0 01-.98.805H30.82a1 1 0 01-.977-.787l-5.388-24.603c-.23-1.05-1.726-1.048-1.954.001l-5.342 24.6a1 1 0 01-.977.789h-5.538zm38.794 0a1 1 0 01-1-1V2.68a1 1 0 011-1h4.595a1 1 0 011 1v13.725a1 1 0 001 1h10.973a1 1 0 001-1V2.681a1 1 0 011-1h4.622a1 1 0 011 1v37.953a1 1 0 01-1 1h-4.622a1 1 0 01-1-1V25.166a1 1 0 00-1-1H56.034a1 1 0 00-1 1v15.47a1 1 0 01-1 1H49.44zm40.616-1a1 1 0 001 1h4.595a1 1 0 001-1V25.118c0-.16.039-.319.113-.46l11.174-21.516a1 1 0 00-.887-1.46h-5.328a1 1 0 00-.902.567l-6.41 13.374a1 1 0 01-1.8.007L86.076 2.243a1 1 0 00-.898-.562h-5.471a1 1 0 00-.888 1.46l11.123 21.462a1 1 0 01.112.46v15.572zm61.271-.312a1 1 0 01-.951 1.312h-5.081a1 1 0 01-.953-.7l-2.421-7.677a1 1 0 00-.954-.699h-11.602a1 1 0 00-.959.715l-2.273 7.645a1 1 0 01-.958.716h-4.916a1 1 0 01-.953-1.305l12.116-37.953a1 1 0 01.953-.696h5.549a1 1 0 01.95.689l12.453 37.953zm-13.101-14.495a1 1 0 00.957-1.29l-3.142-10.362c-.288-.948-1.631-.946-1.915.003l-3.105 10.362a1 1 0 00.958 1.287h6.247zm51.077 15.807a1 1 0 01-1-1V2.68a1 1 0 011-1h22.31a1 1 0 011 1v4.76a1 1 0 01-1 1h-15.714a1 1 0 00-1 1v6.856a1 1 0 001 1h14.461a1 1 0 011 1v4.732a1 1 0 01-1 1h-14.461a1 1 0 00-1 1v8.874a1 1 0 001 1h16.314a1 1 0 011 1v4.732a1 1 0 01-1 1h-22.91zm50.046-1a1 1 0 001 1h4.595a1 1 0 001-1V25.118c0-.16.038-.319.112-.46L257.23 3.141a1 1 0 00-.888-1.46h-5.327a1 1 0 00-.902.567l-6.411 13.374a1 1 0 01-1.8.007L235.37 2.243a1 1 0 00-.899-.562h-5.47a1 1 0 00-.888 1.46l11.122 21.462c.074.142.113.3.113.46v15.572zM261.14 9.742l.001-.002c1.475-3.216 3.428-5.678 5.888-7.311C269.492.793 272.446 0 275.84 0c4.982 0 9.082 1.92 12.217 5.733 3.161 3.82 4.671 9.176 4.671 15.925 0 6.833-1.597 12.312-4.917 16.309-2.953 3.577-6.972 5.349-11.944 5.349-5.003 0-9.041-1.75-11.996-5.292l-.002-.002c-3.318-3.994-4.918-9.406-4.918-16.119 0-4.848.711-8.918 2.189-12.16zm25.901 27.587c3.125-3.761 4.687-8.985 4.687-15.671 0-6.614-1.481-11.71-4.442-15.29C284.343 2.79 280.527 1 275.84 1c-3.234 0-5.987.754-8.258 2.262-2.271 1.508-4.115 3.806-5.532 6.895-1.399 3.07-2.099 6.986-2.099 11.746 0 6.56 1.563 11.719 4.688 15.48 2.743 3.288 6.486 4.933 11.228 4.933 4.706 0 8.43-1.663 11.174-4.988zm-5.459-25.507l-.003-.004c-1.471-1.972-3.349-2.923-5.712-2.923-2.361 0-4.261.958-5.771 2.955-1.495 1.979-2.332 5.178-2.332 9.78 0 4.498.858 7.694 2.413 9.752 1.58 2.073 3.462 3.039 5.69 3.039 2.251 0 4.119-.96 5.659-3.006 1.518-2.037 2.362-5.285 2.362-9.92 0-4.549-.827-7.712-2.306-9.673zm.744 20.192c-1.708 2.271-3.861 3.407-6.459 3.407-2.58 0-4.742-1.145-6.486-3.434-1.745-2.308-2.617-5.76-2.617-10.356 0-4.688.845-8.15 2.535-10.384 1.69-2.235 3.879-3.352 6.568-3.352 2.689 0 4.86 1.108 6.513 3.325 1.672 2.216 2.508 5.641 2.508 10.274 0 4.724-.854 8.23-2.562 10.52z" clip-rule="evenodd"/>
    </g>
    <g>
      <path fill="#353535" fill-rule="evenodd" d="M116.412 156.383l-.008-.004c-.899-.457-3.213-1.267-7.058-2.439-3.46-1.045-6.102-2.207-7.833-3.523-1.726-1.312-3.092-3.021-4.104-5.105l-.006-.013c-.992-2.115-1.486-4.381-1.486-6.785 0-2.794.634-5.339 1.918-7.612l.004-.007c1.31-2.273 3.118-4.005 5.416-5.172 2.297-1.166 5.079-1.723 8.303-1.723 4.863 0 8.794 1.317 11.657 4.07 2.662 2.559 4.107 6.103 4.426 10.513.082 1.126-.794 2.044-1.871 2.102l-6.151.327c-1.052.056-1.919-.702-2.102-1.674-.378-2.009-1.028-3.267-1.818-3.964-.928-.818-2.325-1.299-4.34-1.299-2.042 0-3.461.427-4.392 1.144-.953.734-1.365 1.574-1.365 2.569 0 1.007.387 1.845 1.237 2.567.406.345 1.161.769 2.353 1.253 1.174.475 2.701.98 4.591 1.513l.006.002c4.067 1.172 7.116 2.439 9.049 3.838 1.953 1.377 3.444 3.171 4.465 5.368 1.027 2.188 1.518 4.802 1.518 7.806 0 4.422-1.38 8.196-4.168 11.253-2.843 3.142-7.219 4.612-12.896 4.612-4.922 0-8.912-1.356-11.842-4.18-2.917-2.812-4.658-6.958-5.337-12.296a1.98 1.98 0 011.741-2.211l5.906-.694c1.09-.128 2.035.639 2.227 1.658.497 2.646 1.402 4.502 2.624 5.692 1.202 1.171 2.805 1.791 4.912 1.791 2.256 0 3.9-.578 5.059-1.619 1.184-1.087 1.759-2.39 1.759-3.973 0-.949-.209-1.689-.575-2.267-.367-.581-.948-1.094-1.811-1.514l-.008-.004zm1.307 8.498c1.391-1.274 2.087-2.845 2.087-4.713 0-1.099-.243-2.032-.729-2.801-.486-.77-1.226-1.396-2.219-1.879-.994-.506-3.401-1.341-7.221-2.505-3.423-1.033-5.929-2.154-7.519-3.362-1.59-1.209-2.86-2.791-3.81-4.746-.927-1.978-1.39-4.098-1.39-6.361 0-2.637.595-5.01 1.788-7.12 1.215-2.109 2.882-3.702 5.002-4.779 2.119-1.077 4.736-1.615 7.85-1.615 4.681 0 8.336 1.263 10.964 3.79 2.442 2.349 3.816 5.637 4.122 9.865a.97.97 0 01-.927 1.031l-6.151.328c-.52.027-.97-.349-1.066-.861-.398-2.112-1.111-3.621-2.139-4.529-1.171-1.032-2.838-1.549-5.002-1.549-2.164 0-3.831.451-5.002 1.351-1.17.901-1.755 2.022-1.755 3.362 0 1.319.53 2.428 1.59 3.329 1.06.901 3.5 1.89 7.32 2.967 4.041 1.164 6.956 2.395 8.745 3.691 1.81 1.275 3.191 2.934 4.14 4.977.95 2.022 1.424 4.483 1.424 7.383 0 4.197-1.302 7.724-3.908 10.58-2.584 2.857-6.636 4.285-12.156 4.285-9.469 0-14.864-5.201-16.186-15.602a.98.98 0 01.865-1.092l5.906-.694a1.037 1.037 0 011.127.85c1.039 5.532 3.879 8.298 8.519 8.298 2.429 0 4.34-.626 5.731-1.879zm166.113-1.252c-2.097-3.801-3.522-6.175-4.273-7.119-.75-.967-1.545-1.626-2.384-1.978-.84-.374-2.187-.56-4.041-.56h-.657a1 1 0 00-1 1v18.171a1 1 0 01-1 1h-6.016a1 1 0 01-1-1v-46.319a1 1 0 011-1h15.926c4.329 0 7.42.439 9.275 1.318 1.855.857 3.379 2.363 4.571 4.516 1.193 2.131 1.789 4.691 1.789 7.68 0 3.779-.917 6.822-2.75 9.129-1.371 1.748-3.186 3.004-5.444 3.768-.839.284-1.106 1.476-.443 2.064.915.812 1.719 1.67 2.41 2.573 1.126 1.45 2.66 4.065 4.604 7.845l4.089 7.97a1 1 0 01-.89 1.456h-7.347c-.363 0-.698-.197-.875-.515l-5.544-9.999zm6.754-7.369c1.188 1.531 2.758 4.219 4.702 7.999l4.089 7.971c.683 1.331-.283 2.913-1.779 2.913h-7.347a1.998 1.998 0 01-1.749-1.03l-5.544-9.999-.001-.002c-2.11-3.824-3.493-6.115-4.181-6.98l-.006-.009c-.681-.876-1.347-1.403-1.982-1.669l-.01-.004-.01-.004c-.637-.284-1.806-.474-3.634-.474h-.657v18.171a2 2 0 01-2 2h-6.016a2 2 0 01-2-2v-46.319a2 2 0 012-2h15.926c4.344 0 7.628.433 9.698 1.412 2.082.963 3.748 2.637 5.021 4.934 1.292 2.31 1.916 5.046 1.916 8.168 0 3.938-.957 7.22-2.964 9.748l.001-.001m-3.473 7.175a19.38 19.38 0 00-2.537-2.709c-.011-.01-.056-.061-.029-.185.028-.126.097-.173.129-.184 2.427-.821 4.409-2.185 5.909-4.096m-8.075-12.224l-.006-.009a3.7 3.7 0 00-1.991-1.542c-.237-.075-.843-.163-1.94-.224-1.061-.059-2.484-.089-4.275-.089h-5.294v10.261h4.963c1.81 0 3.276-.038 4.405-.113 1.143-.076 1.867-.185 2.245-.301.751-.251 1.376-.741 1.881-1.531.482-.754.77-1.831.77-3.317 0-1.414-.285-2.429-.758-3.135zm-1.588 8.936c.994-.33 1.8-.978 2.418-1.945.619-.967.928-2.252.928-3.856 0-1.538-.309-2.769-.928-3.692a4.693 4.693 0 00-2.517-1.944c-.751-.242-2.926-.363-6.525-.363h-5.294a1 1 0 00-1 1v10.261a1 1 0 001 1h4.963c3.643 0 5.962-.154 6.955-.461zm-268.57 27.345v-38.145H6a2 2 0 01-2-2v-6.174a2 2 0 012-2h29.633a2 2 0 012 2v6.174a2 2 0 01-2 2H25.84v38.145a2 2 0 01-2 2h-6.016a2 2 0 01-2-2zm25.041 0v-46.319a2 2 0 012-2h6.016a2 2 0 012 2v17.018H64.65v-17.018a2 2 0 012-2h6.049a2 2 0 012 2v46.319a2 2 0 01-2 2h-6.05a2 2 0 01-2-2v-19.127H50.883v19.127a2 2 0 01-2 2h-6.016a2 2 0 01-2-2zm39.88 0v-46.319a2 2 0 012-2h6.017a2 2 0 012 2v46.319a2 2 0 01-2 2h-6.016a2 2 0 01-2-2zm77.808 0v-19.091l-13.7-26.304c-.694-1.332.272-2.924 1.774-2.924h7.135a2 2 0 011.796 1.119l8.193 16.71 8.043-16.697a2 2 0 011.802-1.132h6.963c1.502 0 2.468 1.594 1.773 2.925l-13.764 26.369v19.025a2 2 0 01-2 2h-6.015a2 2 0 01-2-2zm26.664 0v-46.319a2 2 0 012-2h27.546a2 2 0 012 2v6.174a2 2 0 01-2 2h-19.53v8.712h18.006a2 2 0 012 2v6.141a2 2 0 01-2 2h-18.006v11.151h20.259a2 2 0 012 2v6.141a2 2 0 01-2 2h-28.275a2 2 0 01-2-2zm72.588 2h-6.63a2 2 0 01-1.906-1.396l-3.036-9.58h-14.422l-2.853 9.549a2 2 0 01-1.916 1.427h-6.43a2 2 0 01-1.905-2.611l14.861-46.319a1.999 1.999 0 011.904-1.389h7.06a2 2 0 011.899 1.374l15.273 46.319a2 2 0 01-1.899 2.626zm-14.774-21.117l-4.109-13.481-4.06 13.481h8.169zM17.825 174.143a1 1 0 01-1-1v-38.145a1 1 0 00-1-1H6a1 1 0 01-1-1v-6.174a1 1 0 011-1h29.633a1 1 0 011 1v6.174a1 1 0 01-1 1H25.84a1 1 0 00-1 1v38.145a1 1 0 01-1 1h-6.016zm25.041 0a1 1 0 01-1-1v-46.319a1 1 0 011-1h6.016a1 1 0 011 1v17.018a1 1 0 001 1H64.65a1 1 0 001-1v-17.018a1 1 0 011-1h6.049a1 1 0 011 1v46.319a1 1 0 01-1 1h-6.05a1 1 0 01-1-1v-19.127a1 1 0 00-1-1H50.883a1 1 0 00-1 1v19.127a1 1 0 01-1 1h-6.016zm38.88-1a1 1 0 001 1h6.017a1 1 0 001-1v-46.319a1 1 0 00-1-1h-6.016a1 1 0 00-1 1v46.319zm77.808 0a1 1 0 001 1h6.015a1 1 0 001-1v-19.025c0-.161.039-.32.114-.463l13.763-26.368a1 1 0 00-.886-1.463h-6.963a1 1 0 00-.901.566l-8.043 16.697a1 1 0 01-1.799.006l-8.193-16.709a1 1 0 00-.898-.56h-7.135a1 1 0 00-.887 1.462l13.699 26.304a.99.99 0 01.114.462v19.091zm27.664 1a1 1 0 01-1-1v-46.319a1 1 0 011-1h27.546a1 1 0 011 1v6.174a1 1 0 01-1 1h-19.53a1 1 0 00-1 1v8.712a1 1 0 001 1h18.006a1 1 0 011 1v6.141a1 1 0 01-1 1h-18.006a1 1 0 00-1 1v11.151a1 1 0 001 1h20.259a1 1 0 011 1v6.141a1 1 0 01-1 1h-28.275zm70.588 0a1 1 0 00.95-1.313l-15.273-46.319a1 1 0 00-.95-.687h-7.06a.999.999 0 00-.952.695l-14.86 46.319a1 1 0 00.952 1.305h6.43a1 1 0 00.958-.714l2.853-9.548a1 1 0 01.958-.714h14.422a1 1 0 01.953.698l3.036 9.58a1 1 0 00.953.698h6.63zm-13.817-20.408a1 1 0 01-.957 1.291h-8.169a1 1 0 01-.957-1.288l4.059-13.481c.286-.947 1.626-.95 1.914-.003l4.11 13.481zM309.981 159.554v-.008c0-2.91.384-5.354 1.207-7.281.823-1.929 2.383-3.969 4.591-6.123 1.195-1.177 2.141-2.16 2.843-2.949.718-.807 1.136-1.363 1.321-1.698.392-.709.604-1.559.604-2.582 0-1.668-.538-2.973-1.587-3.998l-.006-.006c-1.032-1.027-2.338-1.555-3.998-1.555-1.692 0-3.003.519-4.02 1.512-1.041 1.015-1.856 2.606-2.366 4.889-.226 1.012-1.195 1.747-2.281 1.583l-5.131-.774c-1.002-.151-1.776-1.051-1.675-2.119.371-3.937 1.865-7.244 4.499-9.865 2.873-2.858 6.478-4.279 10.742-4.279 4.325 0 7.984 1.417 10.901 4.273 2.918 2.857 4.375 6.437 4.375 10.669 0 2.185-.515 4.266-1.537 6.23l-.003.004c-1.024 1.944-3.16 4.506-6.303 7.655-1.595 1.608-2.472 2.792-2.792 3.581-.252.673-.422 1.942-.434 3.931a2.018 2.018 0 01-2.012 2.011h-4.92a2 2 0 01-2-1.968l-.018-1.133zm8.453-3.205c.397-.989 1.402-2.296 3.014-3.922 3.136-3.142 5.178-5.614 6.128-7.416a12.33 12.33 0 001.424-5.768c0-3.977-1.358-7.295-4.074-9.954-2.716-2.659-6.117-3.988-10.202-3.988-4.019 0-7.364 1.329-10.036 3.988-2.455 2.442-3.858 5.526-4.209 9.25a.963.963 0 00.829 1.036l5.13.774c.537.082 1.037-.282 1.156-.812 1.071-4.789 3.525-7.183 7.362-7.183 1.899 0 3.467.615 4.703 1.846 1.259 1.23 1.888 2.802 1.888 4.713 0 1.165-.243 2.187-.728 3.065-.486.879-1.933 2.505-4.34 4.878-2.164 2.11-3.621 4.044-4.372 5.801-.751 1.758-1.126 4.054-1.126 6.889l.018 1.125a.999.999 0 001 .984h4.92a1.02 1.02 0 001.012-1.018c.012-2.007.18-3.437.503-4.288zm-8.42 16.765v-7.261a2 2 0 012-2h5.652a2 2 0 012 2v7.261a2 2 0 01-2 2h-5.652a2 2 0 01-2-2zm1 0a1 1 0 001 1h5.652a1 1 0 001-1v-7.261a1 1 0 00-1-1h-5.652a1 1 0 00-1 1v7.261z" clip-rule="evenodd"/>
    </g>
  </svg>
  