<svg xmlns="http://www.w3.org/2000/svg" viewBox="0 0 328 189">
  <path fill="#8CCBD9" d="M9.822 47.635L2 7.68h6.786l4.906 27.444 5.995-27.444h7.877l5.75 27.908L38.356 7.68h6.65l-7.958 39.953h-7.032l-6.54-29.869-6.487 29.87H9.822zM48.44 47.635V7.68h6.595v15.725h12.972V7.681h6.623v39.953h-6.623V30.166H55.035v17.47h-6.596zM90.055 47.635V30.819L78.064 7.681h7.74l7.712 15.807 7.576-15.807h7.604L96.65 30.874v16.76h-6.595zM151.756 47.635h-7.195l-2.861-9.076h-13.082l-2.698 9.076h-7.031L131.643 7.68h7.004l13.109 39.954zm-12.182-15.807l-4.497-14.826-4.442 14.826h8.939zM155.272 47.635V7.68h13.926c3.561 0 6.105.364 7.631 1.09 1.526.709 2.78 1.954 3.761 3.734.981 1.762 1.472 3.88 1.472 6.35 0 3.125-.754 5.642-2.262 7.55-1.49 1.907-3.616 3.106-6.378 3.597 1.418 1.017 2.589 2.134 3.516 3.352.927 1.199 2.189 3.361 3.788 6.486l3.979 7.794h-7.876l-4.796-8.693c-1.727-3.144-2.898-5.106-3.516-5.887-.618-.8-1.272-1.345-1.962-1.635-.691-.309-1.799-.463-3.325-.463h-1.363v16.679h-6.595zm6.595-23.057h4.906c2.997 0 4.905-.127 5.723-.381.817-.273 1.481-.809 1.989-1.608.509-.8.763-1.862.763-3.189 0-1.272-.254-2.29-.763-3.052a3.867 3.867 0 00-2.071-1.608c-.618-.2-2.407-.3-5.369-.3h-5.178v10.138zM188.303 47.635V7.68h24.309v6.76h-17.714v8.856h16.461v6.732h-16.461v10.874h18.314v6.732h-24.909zM239.348 47.635V30.819L227.356 7.681h7.74l7.713 15.807 7.576-15.807h7.604l-12.046 23.193v16.76h-6.595zM259.951 27.903c0-4.76.7-8.675 2.099-11.746 1.417-3.089 3.261-5.387 5.532-6.895S272.606 7 275.84 7c4.687 0 8.503 1.79 11.446 5.369 2.962 3.58 4.442 8.675 4.442 15.289 0 6.686-1.562 11.91-4.687 15.67-2.744 3.325-6.468 4.988-11.174 4.988-4.742 0-8.485-1.645-11.228-4.933-3.125-3.761-4.688-8.92-4.688-15.48zm6.813-.272c0 4.596.873 8.048 2.617 10.356 1.744 2.29 3.906 3.434 6.486 3.434 2.598 0 4.751-1.136 6.459-3.407 1.708-2.29 2.562-5.796 2.562-10.52 0-4.633-.836-8.058-2.507-10.274-1.654-2.217-3.825-3.325-6.514-3.325s-4.878 1.117-6.568 3.352c-1.69 2.235-2.535 5.696-2.535 10.384zM296.852 7.681h6.595v21.64c0 3.36.082 5.55.246 6.567.29 1.763.981 3.125 2.071 4.088 1.108.963 2.562 1.445 4.36 1.445 1.526 0 2.771-.336 3.734-1.009.963-.69 1.617-1.635 1.962-2.834.364-1.217.545-3.815.545-7.794V7.68h6.623v20.985c0 5.36-.291 9.24-.872 11.637-.564 2.38-1.854 4.316-3.87 5.805-1.999 1.472-4.642 2.208-7.931 2.208-3.416 0-6.086-.609-8.012-1.826-1.908-1.236-3.298-2.962-4.17-5.178-.854-2.235-1.281-6.341-1.281-12.319V7.681z"/>
  <g>
    <path fill="#FCF9F7" d="M18.183 179.463V140.11H6.648v-8.013h30.856v8.013H26.002v39.353h-7.82zM42.609 179.463v-47.366h7.819v18.643h15.38v-18.643h7.85v47.366h-7.85v-20.71h-15.38v20.71h-7.819zM81.51 179.463v-47.366h7.82v47.366h-7.82zM94.886 164.051l7.658-.904c.862 6.052 3.683 9.079 8.465 9.079 2.37 0 4.233-.614 5.59-1.842 1.357-1.249 2.035-2.789 2.035-4.62 0-1.077-.237-1.993-.71-2.747-.474-.753-1.196-1.367-2.165-1.841-.97-.496-3.317-1.314-7.044-2.456-3.339-1.012-5.783-2.111-7.334-3.295-1.551-1.185-2.79-2.736-3.716-4.653-.905-1.939-1.357-4.017-1.357-6.236 0-2.585.582-4.911 1.745-6.979 1.185-2.068 2.811-3.629 4.879-4.685 2.068-1.055 4.62-1.583 7.657-1.583 4.567 0 8.131 1.239 10.695 3.716 2.563 2.477 3.92 6.02 4.071 10.63l-7.852.42c-.344-2.542-1.087-4.319-2.229-5.331-1.142-1.013-2.768-1.519-4.879-1.519-2.111 0-3.737.442-4.879 1.325-1.141.883-1.712 1.981-1.712 3.295 0 1.293.517 2.381 1.551 3.264 1.034.883 3.414 1.852 7.14 2.908 3.942 1.141 6.786 2.347 8.53 3.618 1.767 1.25 3.113 2.876 4.039 4.879.926 1.982 1.389 4.394 1.389 7.237 0 4.115-1.271 7.572-3.812 10.372-2.52 2.8-6.473 4.2-11.858 4.2-9.521 0-14.82-5.417-15.897-16.252zM157.406 179.463v-19.935l-14.216-27.431h9.176l9.144 18.74 8.982-18.74h9.014l-14.281 27.496v19.87h-7.819zM183.416 179.463v-47.366h28.82v8.013h-21.001v10.5h19.515v7.981h-19.515v12.892h21.712v7.98h-29.531zM254.595 179.463h-8.53l-3.393-10.759h-15.508l-3.199 10.759h-8.336l15.121-47.366h8.304l15.541 47.366zm-14.443-18.74l-5.331-17.576-5.267 17.576h10.598zM258.763 179.463v-47.366h16.51c4.222 0 7.238.431 9.047 1.292 1.809.84 3.296 2.316 4.459 4.427 1.163 2.089 1.744 4.598 1.744 7.528 0 3.705-.893 6.688-2.681 8.95-1.767 2.261-4.287 3.683-7.561 4.265 1.68 1.206 3.07 2.531 4.168 3.974 1.099 1.421 2.596 3.985 4.491 7.69l4.718 9.24h-9.338l-5.687-10.307c-2.046-3.726-3.435-6.052-4.168-6.979-.732-.947-1.507-1.594-2.326-1.938-.818-.366-2.132-.549-3.942-.549h-1.615v19.773h-7.819zm7.819-27.334h5.816c3.554 0 5.815-.151 6.785-.452.969-.323 1.755-.959 2.358-1.907.603-.947.905-2.207.905-3.78 0-1.508-.302-2.714-.905-3.619a4.588 4.588 0 00-2.455-1.906c-.733-.237-2.854-.355-6.365-.355h-6.139v12.019zM313.851 167.25h-6.753l-.032-2.068c0-2.778.366-5.029 1.099-6.753.732-1.723 2.154-3.618 4.265-5.686 2.347-2.326 3.758-3.92 4.232-4.782.474-.862.711-1.863.711-3.005 0-1.874-.614-3.414-1.842-4.62-1.206-1.206-2.735-1.81-4.588-1.81-3.985 0-6.44 2.661-7.366 7.981l-6.818-1.034c.194-4.049 1.583-7.367 4.168-9.951 2.607-2.607 5.87-3.91 9.79-3.91 3.985 0 7.302 1.303 9.952 3.91 2.649 2.606 3.974 5.859 3.974 9.757a12.12 12.12 0 01-1.39 5.655c-.926 1.766-2.918 4.189-5.977 7.269-1.572 1.594-2.552 2.876-2.94 3.845-.366.969-.528 2.703-.485 5.202zm-6.753 12.213v-9.079h7.464v9.079h-7.464z"/>
  </g>
  <path fill="#353535" fill-rule="evenodd" d="M17.183 180.463V141.11H5.648v-10.013h32.856v10.013H27.002v39.353h-9.82zm8.819-40.353h11.502v-8.013H6.648v8.013h11.535v39.353h7.819V140.11zm15.607 40.353v-49.366h9.819v18.643h13.38v-18.643h9.85v49.366h-9.85v-20.71h-13.38v20.71h-9.819zm8.819-21.71h15.38v20.71h7.85v-47.366h-7.85v18.643h-15.38v-18.643h-7.819v47.366h7.819v-20.71zm30.082 21.71v-49.366h9.82v49.366h-9.82zm13.284-17.29l9.602-1.134.138.967c.415 2.915 1.285 4.96 2.504 6.268 1.192 1.278 2.81 1.952 4.971 1.952 2.195 0 3.792-.565 4.916-1.581 1.151-1.061 1.709-2.334 1.709-3.881 0-.929-.203-1.65-.557-2.214-.356-.566-.92-1.066-1.757-1.476l-.008-.004-.008-.004c-.875-.447-3.13-1.24-6.881-2.389-3.377-1.024-5.956-2.165-7.649-3.458-1.687-1.288-3.021-2.967-4.01-5.012l-.005-.012c-.969-2.076-1.45-4.3-1.45-6.659 0-2.741.618-5.238 1.872-7.469l.004-.007c1.279-2.232 3.046-3.932 5.292-5.078 2.245-1.146 4.964-1.693 8.112-1.693 4.75 0 8.592 1.293 11.39 3.997 2.8 2.706 4.219 6.526 4.375 11.316l.032.979-9.75.522-.123-.914c-.333-2.453-1.027-3.941-1.902-4.717-.899-.797-2.255-1.267-4.216-1.267-1.988 0-3.365.418-4.267 1.116-.924.715-1.324 1.533-1.324 2.504 0 .983.376 1.799 1.2 2.503.393.336 1.126.75 2.289 1.224 1.143.465 2.631.96 4.475 1.482l.006.002c3.967 1.149 6.945 2.393 8.835 3.767 1.909 1.352 3.365 3.115 4.362 5.271 1.003 2.147 1.482 4.711 1.482 7.657 0 4.339-1.347 8.042-4.07 11.043-2.78 3.087-7.057 4.529-12.6 4.529-4.956 0-8.946-1.416-11.83-4.363-2.864-2.929-4.51-7.242-5.062-12.79l-.097-.977zm28.847 12.93c2.541-2.8 3.812-6.257 3.812-10.372 0-2.843-.463-5.255-1.389-7.237-.926-2.003-2.272-3.629-4.039-4.879-1.744-1.271-4.588-2.477-8.53-3.618-3.726-1.056-6.106-2.025-7.14-2.908-1.034-.883-1.551-1.971-1.551-3.264 0-1.314.571-2.412 1.712-3.295 1.142-.883 2.768-1.325 4.879-1.325 2.111 0 3.737.506 4.879 1.519 1.142 1.012 1.885 2.789 2.229 5.331l7.852-.42c-.151-4.61-1.508-8.153-4.071-10.63-2.564-2.477-6.128-3.716-10.695-3.716-3.037 0-5.589.528-7.657 1.583-2.068 1.056-3.694 2.617-4.88 4.685-1.162 2.068-1.744 4.394-1.744 6.979 0 2.219.452 4.297 1.357 6.236.926 1.917 2.165 3.468 3.716 4.653 1.551 1.184 3.995 2.283 7.334 3.295 3.727 1.142 6.074 1.96 7.044 2.456.969.474 1.691 1.088 2.165 1.841.473.754.71 1.67.71 2.747 0 1.831-.678 3.371-2.035 4.62-1.357 1.228-3.22 1.842-5.59 1.842-4.782 0-7.603-3.027-8.465-9.079l-7.657.904c1.076 10.835 6.375 16.252 15.896 16.252 5.385 0 9.338-1.4 11.858-4.2zm33.765 4.36v-20.691l-14.861-28.675h11.446l8.511 17.443 8.36-17.443h11.291l-14.928 28.74v20.626h-9.819zm8.819-20.87l14.281-27.496h-9.014l-8.982 18.74-9.144-18.74h-9.176l14.216 27.431v19.935h7.819v-19.87zm17.191 20.87v-49.366h30.82v10.013h-21.001v8.5h19.515v9.981h-19.515v10.892h21.712v9.98h-31.531zm8.819-8.98v-12.892h19.515v-7.981h-19.515v-10.5h21.001v-8.013h-28.82v47.366h29.531v-7.98h-21.712zm64.74 8.98h-10.643l-3.393-10.759H227.91l-3.199 10.759H214.26l15.759-49.366h9.759l16.197 49.366zm-28.811-11.759h15.508l3.393 10.759h8.53l-15.541-47.366h-8.304l-15.121 47.366h8.336l3.199-10.759zm30.599 11.759v-49.366h17.51c4.238 0 7.447.424 9.472 1.387 2.037.947 3.666 2.592 4.908 4.847 1.262 2.268 1.87 4.952 1.87 8.013 0 3.862-.933 7.083-2.893 9.565-1.542 1.974-3.596 3.345-6.116 4.135a19.148 19.148 0 012.729 2.881c1.16 1.502 2.692 4.138 4.588 7.842l5.46 10.696H283.73l-5.972-10.824-.001-.001c-2.059-3.749-3.406-5.993-4.076-6.84l-.007-.009c-.662-.857-1.309-1.37-1.923-1.629l-.01-.004-.01-.004c-.616-.276-1.751-.462-3.534-.462h-.615v19.773h-9.819zm8.819-20.773h1.615c1.81 0 3.124.183 3.942.549.819.344 1.594.991 2.326 1.938.733.927 2.122 3.253 4.168 6.979l5.687 10.307h9.338l-4.718-9.24c-1.895-3.705-3.392-6.269-4.491-7.69a18.474 18.474 0 00-3.112-3.169c-.338-.274-.69-.543-1.056-.805.445-.079.876-.174 1.293-.284 2.652-.7 4.741-2.027 6.268-3.981 1.788-2.262 2.681-5.245 2.681-8.95 0-2.93-.581-5.439-1.744-7.528-1.163-2.111-2.65-3.587-4.459-4.427-1.809-.861-4.825-1.292-9.047-1.292h-16.51v47.366h7.819V159.69zm14.127-16.764l-.006-.009a3.591 3.591 0 00-1.928-1.502c-.228-.072-.816-.158-1.886-.218-1.034-.058-2.421-.087-4.168-.087h-5.139v10.019h4.816c1.765 0 3.195-.038 4.295-.111 1.115-.074 1.817-.181 2.183-.293.725-.244 1.331-.72 1.822-1.492.467-.735.748-1.788.748-3.243 0-1.384-.278-2.376-.737-3.064zm-1.526 8.751c.969-.323 1.755-.959 2.358-1.907.603-.947.905-2.207.905-3.78 0-1.508-.302-2.714-.905-3.619a4.588 4.588 0 00-2.455-1.906c-.733-.237-2.854-.355-6.365-.355h-6.139v12.019h5.816c3.554 0 5.815-.151 6.785-.452zm35.686 16.573h-8.755l-.048-3.06v-.008c0-2.854.374-5.252 1.178-7.144.805-1.893 2.328-3.896 4.484-6.008 1.165-1.154 2.087-2.116 2.772-2.89.699-.79 1.106-1.334 1.286-1.661.38-.692.587-1.522.587-2.523 0-1.632-.524-2.906-1.542-3.907l-.007-.006c-1.001-1.002-2.268-1.517-3.881-1.517-1.744 0-3.077.571-4.095 1.674-1.048 1.135-1.841 2.921-2.286 5.479l-.168.963-8.677-1.315.043-.902c.205-4.268 1.68-7.83 4.46-10.61 2.807-2.807 6.33-4.203 10.497-4.203 4.227 0 7.802 1.392 10.653 4.197 2.851 2.804 4.273 6.318 4.273 10.47 0 2.145-.503 4.187-1.502 6.115l-.002.004c-1.001 1.909-3.086 4.421-6.152 7.509-1.554 1.575-2.407 2.733-2.719 3.503-.289.774-.46 2.33-.417 4.823l.018 1.017zm2.407-10.047c3.059-3.08 5.051-5.503 5.977-7.269a12.12 12.12 0 001.39-5.655c0-3.898-1.325-7.151-3.974-9.757-2.65-2.607-5.967-3.91-9.952-3.91-3.92 0-7.183 1.303-9.79 3.91-2.585 2.584-3.974 5.902-4.168 9.951l6.818 1.034c.926-5.32 3.381-7.981 7.366-7.981 1.853 0 3.382.604 4.588 1.81 1.228 1.206 1.842 2.746 1.842 4.62 0 1.142-.237 2.143-.711 3.005-.474.862-1.885 2.456-4.232 4.782-2.111 2.068-3.533 3.963-4.265 5.686-.733 1.724-1.099 3.975-1.099 6.753l.032 2.068h6.753c-.006-.348-.008-.681-.006-1 .012-1.967.176-3.368.491-4.202.388-.969 1.368-2.251 2.94-3.845zm-11.178 22.26v-11.079h9.464v11.079h-9.464zm-71.277-37.316l-5.267 17.576h10.598l-5.331-17.576zm.006 3.464l-3.929 13.112h7.906l-3.977-13.112zM81.51 179.463h7.82v-47.366h-7.82v47.366zm225.588 0h7.464v-9.079h-7.464v9.079z" clip-rule="evenodd"/>
  <g>
    <path fill="#F86849" d="M63.593 69.454h-13.63l-15.232 32.269-15.165-32.269H5.736l22.18 45.096h12.962l22.715-45.096zM123.947 91.969c0-15.233-13.161-23.985-28.995-23.985-15.833 0-28.995 8.752-28.995 23.985 0 15.299 13.162 24.051 28.995 24.051 15.834 0 28.995-8.752 28.995-24.051zm-12.693 0c0 8.083-5.479 13.228-16.302 13.228-10.756 0-16.234-5.145-16.234-13.228 0-8.017 5.478-13.228 16.234-13.228 10.823 0 16.302 5.21 16.302 13.228zM175.369 69.454h-47.501v11.29h17.637v33.806h12.159V80.745h17.705v-11.29zM194.689 69.454H182.53v45.096h12.159V69.454zM259.506 69.454h-12.828v28.127L219.22 69.454h-12.961v45.096h12.827V85.154l27.793 29.396h12.627V69.454zM322.839 74.198c-3.541-2.606-14.297-6.214-26.122-6.214-14.965 0-27.659 8.752-27.659 23.985 0 15.299 11.892 24.051 26.991 24.051 14.097 0 22.448-2.405 26.189-4.61V89.764h-21.379v9.955h9.554v3.139c-2.205 2.072-8.752 2.339-13.429 2.339-10.088 0-15.433-5.145-15.433-13.228 0-8.017 5.679-13.228 15.166-13.228 6.881 0 13.028 1.536 20.31 6.08l5.812-10.623z"/>
  </g>
  <path fill="#353535" fill-rule="evenodd" d="M65.216 68.454L41.494 115.55h-14.2L4.13 68.454H20.2l14.533 30.922L49.33 68.454h15.886zM34.73 101.723L19.565 69.454H5.736l22.18 45.096h12.961l22.715-45.096H49.963l-15.232 32.269zm141.637-33.269v13.29h-17.704v33.806h-14.159V81.745h-17.638v-13.29h49.501zm-48.501 12.29v-11.29h47.501v11.29h-17.704v33.806h-12.159V80.745h-17.638zm67.822-12.29v47.096h-14.16V68.454h14.16zm64.816 0v47.096h-14.057l-26.362-27.882v27.882h-14.827V68.454h14.382l26.037 26.67v-26.67h14.827zm-13.827 29.127L219.22 69.454h-12.961v45.096h12.827V85.154l27.793 29.396h12.626V69.454h-12.827v28.127zm77.458-23.67l-6.74 12.318-.899-.56c-7.125-4.445-13.088-5.928-19.78-5.928-4.567 0-8.1 1.252-10.478 3.356-2.365 2.092-3.688 5.113-3.688 8.872 0 3.811 1.252 6.824 3.596 8.896 2.36 2.087 5.953 3.332 10.837 3.332 2.327 0 5.081-.067 7.512-.384 1.215-.159 2.323-.377 3.243-.669.72-.228 1.276-.486 1.674-.762v-1.664h-9.554V88.764h23.379v23.217l-.493.29c-3.964 2.336-12.523 4.749-26.696 4.749-7.735 0-14.726-2.242-19.802-6.524-5.095-4.299-8.189-10.596-8.189-18.527 0-7.923 3.313-14.203 8.587-18.481 5.254-4.262 12.404-6.504 20.072-6.504 6.01 0 11.742.916 16.425 2.164 4.652 1.239 8.369 2.83 10.29 4.244l.704.518zm-13.723 28.947c-2.205 2.072-8.752 2.339-13.429 2.339-10.088 0-15.433-5.145-15.433-13.228 0-8.017 5.679-13.228 15.166-13.228 6.61 0 12.543 1.418 19.455 5.557.283.17.568.343.855.522l5.812-10.622c-3.541-2.606-14.297-6.214-26.122-6.214-14.965 0-27.659 8.752-27.659 23.985 0 15.299 11.892 24.051 26.991 24.051 14.096 0 22.447-2.405 26.189-4.61V89.764h-21.379v9.955h9.554v3.139zM116.001 73.475c5.503 4.273 8.946 10.556 8.946 18.494 0 7.969-3.442 14.269-8.946 18.552-5.48 4.264-12.959 6.499-21.049 6.499s-15.568-2.235-21.049-6.499c-5.504-4.283-8.946-10.583-8.946-18.552 0-7.938 3.443-14.22 8.947-18.494 5.48-4.256 12.959-6.49 21.048-6.49 8.09 0 15.568 2.234 21.049 6.49zm-9.484 27.375c2.458-2.074 3.737-5.08 3.737-8.881 0-3.767-1.278-6.774-3.739-8.858-2.483-2.102-6.298-3.37-11.563-3.37-5.23 0-9.028 1.267-11.503 3.37-2.454 2.083-3.731 5.09-3.731 8.858 0 3.802 1.278 6.808 3.73 8.882 2.474 2.094 6.272 3.346 11.504 3.346 5.268 0 9.082-1.253 11.565-3.347zm76.012 13.7h12.16V69.454h-12.16v45.096zM94.952 67.984c15.834 0 28.995 8.752 28.995 23.985 0 15.299-13.161 24.051-28.995 24.051-15.833 0-28.995-8.752-28.995-24.051 0-15.233 13.162-23.985 28.995-23.985zm0 37.213c10.823 0 16.302-5.145 16.302-13.228 0-8.017-5.479-13.228-16.302-13.228-10.756 0-16.234 5.21-16.234 13.228 0 8.083 5.478 13.228 16.234 13.228z" clip-rule="evenodd"/>
  <g>
    <path fill="#353535" fill-rule="evenodd" d="M8.98 48.633L.767 6.68h8.838l4.167 23.31 5.092-23.31h9.496l4.871 23.639 4.271-23.64h8.704L37.85 48.634h-8.657l-5.732-26.176-5.684 26.176H8.98zm14.477-30.87l6.541 29.87h7.031L44.987 7.68h-6.65l-5.041 27.907-5.75-27.907h-7.877l-5.995 27.444L8.768 7.68H1.982l7.821 39.953h7.168l6.486-29.87zm23.964 30.87V6.68h8.596v15.725h10.972V6.68h8.623v41.953h-8.623v-17.47H56.016v17.47h-8.595zm7.596-18.47h12.972v17.47h6.623V7.68h-6.623v15.725H55.016V7.68h-6.595v39.953h6.596v-17.47zm34.02 18.47V31.06L76.4 6.68h10.01l7.079 14.51 6.955-14.51h9.879L97.632 31.116v17.517h-8.595zm7.595-17.76L108.678 7.68h-7.604l-7.576 15.806L85.785 7.68h-7.74l11.992 23.138v16.815h6.595v-16.76zm56.487 17.76h-9.309l-2.862-9.076h-11.602l-2.698 9.076h-9.146L130.895 6.68h8.459l13.765 41.953zM128.6 38.557h13.082l2.861 9.076h7.195L138.629 7.68h-7.004l-12.754 39.953h7.031l2.698-9.076zm25.654 10.076V6.68h14.926c3.578 0 6.314.357 8.056 1.185 1.754.815 3.15 2.23 4.211 4.154 1.08 1.94 1.597 4.232 1.597 6.835 0 3.284-.794 6.038-2.477 8.167-1.267 1.622-2.938 2.766-4.969 3.452a16.177 16.177 0 012.115 2.27c.988 1.28 2.286 3.514 3.885 6.64l4.722 9.25h-10.099l-5.083-9.213c-1.738-3.165-2.869-5.045-3.424-5.747l-.007-.01c-.547-.708-1.073-1.12-1.559-1.324l-.01-.005-.01-.004c-.488-.218-1.417-.376-2.916-.376h-.363v16.679h-8.595zm7.595-17.68h1.363c1.526 0 2.634.155 3.324.464.691.29 1.345.836 1.963 1.635.617.782 1.789 2.744 3.515 5.887l4.797 8.694h7.876l-3.979-7.795c-1.599-3.125-2.861-5.287-3.788-6.486a15.566 15.566 0 00-2.472-2.548c-.332-.275-.68-.543-1.044-.804a13.37 13.37 0 001.279-.29c2.148-.603 3.847-1.705 5.098-3.307 1.509-1.908 2.263-4.424 2.263-7.55 0-2.47-.491-4.587-1.472-6.35-.981-1.78-2.235-3.025-3.761-3.733-1.526-.727-4.07-1.09-7.631-1.09h-13.926v39.953h6.595v-16.68zm11.786-14.052l-.006-.01a2.867 2.867 0 00-1.544-1.202c-.171-.055-.647-.127-1.55-.177a66.062 66.062 0 00-3.508-.074h-4.178v8.139h3.905c1.488 0 2.69-.032 3.613-.094.938-.062 1.514-.152 1.804-.24.574-.194 1.056-.57 1.452-1.193.374-.587.607-1.442.607-2.652 0-1.148-.231-1.95-.595-2.497zm-1.157 7.294c-.818.255-2.726.382-5.724.382h-4.905V14.438h5.178c2.962 0 4.751.1 5.369.3a3.87 3.87 0 012.071 1.608c.509.763.763 1.78.763 3.052 0 1.327-.254 2.39-.763 3.19-.509.799-1.172 1.335-1.989 1.607zm14.806 24.438V6.68h26.31v8.758H195.88v6.858h16.461v8.731H195.88v8.874h18.314v8.732h-26.91zm7.596-7.732V30.027h16.461v-6.731H194.88v-8.857h17.714v-6.76h-24.31v39.954h24.91V40.9H194.88zm43.45 7.732V31.06L225.694 6.68h10.009l7.08 14.51 6.955-14.51h9.879l-12.692 24.436v17.517h-8.595zm7.595-17.76L257.971 7.68h-7.604l-7.576 15.806-7.713-15.806h-7.74l11.992 23.138v16.815h6.595v-16.76zM295.834 6.68h8.595v22.639c0 3.38.084 5.485.233 6.409.262 1.585.864 2.717 1.743 3.495.887.77 2.089 1.196 3.701 1.196 1.379 0 2.405-.302 3.156-.824.767-.552 1.293-1.302 1.579-2.295l.003-.01c.148-.497.279-1.36.369-2.645.089-1.267.134-2.886.134-4.863V6.68h8.623v21.985c0 5.369-.289 9.35-.901 11.872-.619 2.614-2.047 4.749-4.247 6.374h-.001c-2.219 1.635-5.091 2.403-8.524 2.403-3.517 0-6.4-.624-8.547-1.98l-.009-.006c-2.092-1.355-3.612-3.25-4.557-5.652l-.003-.009c-.928-2.427-1.347-6.706-1.347-12.675V6.68zm26.264 33.622c.581-2.399.872-6.278.872-11.637V7.68h-6.623v22.102c0 3.979-.182 6.577-.545 7.794-.345 1.2-.999 2.144-1.962 2.835-.963.672-2.208 1.008-3.734 1.008-1.799 0-3.252-.481-4.36-1.444-1.091-.963-1.781-2.326-2.072-4.088-.163-1.018-.245-3.207-.245-6.568V7.679h-6.595v21.313c0 5.977.427 10.083 1.281 12.318.872 2.217 2.262 3.943 4.169 5.178 1.926 1.218 4.597 1.826 8.013 1.826 3.288 0 5.932-.736 7.931-2.207 2.016-1.49 3.306-3.425 3.87-5.805zM135.059 17l-4.442 14.826h8.939L135.059 17zm.006 3.465l3.143 10.361h-6.248l3.105-10.361zM261.122 15.742l.001-.002c1.475-3.216 3.428-5.678 5.888-7.311C269.474 6.793 272.428 6 275.822 6c4.982 0 9.082 1.92 12.217 5.732 3.161 3.822 4.671 9.177 4.671 15.926 0 6.833-1.597 12.312-4.917 16.309-2.952 3.577-6.972 5.349-11.944 5.349-5.003 0-9.041-1.75-11.996-5.292l-.001-.002c-3.319-3.994-4.919-9.406-4.919-16.119 0-4.848.711-8.918 2.189-12.16zm25.901 27.586c3.125-3.76 4.687-8.984 4.687-15.67 0-6.614-1.48-11.71-4.442-15.29C284.325 8.79 280.509 7 275.822 7c-3.234 0-5.987.754-8.258 2.262-2.271 1.508-4.115 3.806-5.532 6.895-1.399 3.07-2.099 6.986-2.099 11.746 0 6.56 1.563 11.719 4.688 15.48 2.743 3.288 6.486 4.933 11.228 4.933 4.706 0 8.43-1.663 11.174-4.988zm-5.459-25.506l-.003-.004c-1.471-1.972-3.349-2.923-5.712-2.923-2.361 0-4.26.958-5.77 2.955-1.496 1.979-2.333 5.177-2.333 9.78 0 4.498.858 7.694 2.413 9.752 1.58 2.073 3.462 3.039 5.69 3.039 2.251 0 4.119-.96 5.659-3.007 1.518-2.036 2.362-5.284 2.362-9.92 0-4.548-.827-7.711-2.306-9.672zm.744 20.192c-1.708 2.271-3.861 3.407-6.459 3.407-2.58 0-4.742-1.145-6.486-3.434-1.745-2.308-2.617-5.76-2.617-10.356 0-4.688.845-8.15 2.535-10.384 1.69-2.235 3.879-3.352 6.568-3.352 2.689 0 4.86 1.108 6.513 3.325 1.672 2.216 2.508 5.641 2.508 10.274 0 4.724-.854 8.23-2.562 10.52z" clip-rule="evenodd"/>
  </g>
</svg>