<svg xmlns="http://www.w3.org/2000/svg" viewBox="0 0 277 167">
  <path fill="#8CCBD9" d="M277 83.134c0 45.913-62.009 83.133-138.5 83.133S0 129.047 0 83.134C0 37.22 62.009 0 138.5 0S277 37.22 277 83.134z"/>
  <path fill="#353535" fill-rule="evenodd" d="M235.405 140.203C260.148 125.352 275 105.112 275 83.133c0-21.978-14.852-42.217-39.595-57.069C210.702 11.236 176.445 2 138.5 2s-72.202 9.236-96.905 24.064C16.852 40.916 2 61.155 2 83.134c0 21.978 14.852 42.218 39.595 57.069 24.703 14.828 58.96 24.064 96.905 24.064s72.202-9.236 96.905-24.064zM138.5 166.267c76.491 0 138.5-37.22 138.5-83.133C277 37.22 214.991 0 138.5 0S0 37.22 0 83.134c0 45.913 62.009 83.133 138.5 83.133z" clip-rule="evenodd"/>
  <path fill="#FCF9F7" d="M94.618 56.054H88.43v22.95h22.474v-6.188H94.618V56.054zM121.72 56.054h-6.188v22.95h6.188v-22.95zM156.067 56.054h-6.528v14.314l-13.974-14.314h-6.596v22.95h6.528v-14.96l14.144 14.96h6.426v-22.95zM189.522 56.054h-9.86l-10.54 8.67v-8.67h-6.188v22.95h6.188v-7.548l5.134-4.114 8.33 11.662h8.84l-12.274-15.232 10.37-7.718zM74.808 96.106c-1.734-3.774-6.426-6.8-12.342-6.8-7.65 0-14.11 4.454-14.11 12.206 0 7.786 6.052 12.24 13.736 12.24 6.596 0 10.744-2.448 12.58-6.766l-5.304-2.482c-1.02 2.074-3.026 3.74-6.8 3.74-5.134 0-7.684-2.618-7.684-6.732 0-4.08 2.72-6.732 7.582-6.732 3.502 0 6.222 1.7 6.97 4.114l5.372-2.788zM109.544 101.512c0-7.752-6.698-12.206-14.756-12.206s-14.756 4.454-14.756 12.206c0 7.786 6.698 12.24 14.756 12.24s14.756-4.454 14.756-12.24zm-6.46 0c0 4.114-2.788 6.732-8.296 6.732-5.474 0-8.262-2.618-8.262-6.732 0-4.08 2.788-6.732 8.262-6.732 5.508 0 8.296 2.652 8.296 6.732zM133.419 104.232c5.848 0 8.738-2.686 8.738-7.072s-2.822-7.106-8.5-7.106h-17.918v22.95h6.188v-8.772h11.492zm.204-8.772c1.156 0 1.972.476 1.972 1.496 0 1.156-.816 1.666-1.938 1.666h-11.73V95.46h11.696zM153.379 90.054h-6.188v22.95h6.188v-22.95zM184.801 90.054h-24.174v22.95h24.65v-5.848h-18.428v-3.264h15.674v-5.304h-15.674v-3.264h17.952v-5.27zM189.977 90.054v22.95h13.77c10.71 0 14.28-6.358 14.28-11.492 0-9.146-6.766-11.458-15.062-11.458h-12.988zm12.988 5.168c6.018 0 8.602 2.414 8.602 6.052 0 3.876-2.958 5.814-8.636 5.814h-6.732V95.222h6.766zM230.09 90.054h-7.174l1.462 16.354h4.216l1.496-16.354zm.034 20.502c0-1.632-1.598-2.89-3.604-2.89-1.938 0-3.536 1.258-3.536 2.89 0 1.598 1.598 2.89 3.536 2.89 2.006 0 3.604-1.292 3.604-2.89z"/>
  <path fill="#353535" fill-rule="evenodd" d="M94.618 54.054a2 2 0 012 2v14.762h14.286a2 2 0 012 2v6.188a2 2 0 01-2 2H88.43a2 2 0 01-2-2v-22.95a2 2 0 012-2h6.188zm0 2v16.762h16.286v6.188H88.43v-22.95h6.188zm27.102-2a2 2 0 012 2v22.95a2 2 0 01-2 2h-6.188a2 2 0 01-2-2v-22.95a2 2 0 012-2h6.188zm-6.188 2h6.188v22.95h-6.188v-22.95zm40.535-2a2 2 0 012 2v22.95a2 2 0 01-2 2h-6.426c-.55 0-1.076-.226-1.454-.626l-10.69-11.307v9.933a2 2 0 01-2 2h-6.528a2 2 0 01-2-2v-22.95a2 2 0 012-2h6.596c.538 0 1.054.218 1.431.603l10.543 10.8v-9.403a2 2 0 012-2h6.528zm-6.528 16.314l-13.974-14.314h-6.596v22.95h6.528v-14.96l14.144 14.96h6.426v-22.95h-6.528v14.314zm41.882-14.943a2 2 0 01-.705 2.234l-8.702 6.477 10.969 13.613a2 2 0 01-1.557 3.255h-8.84a1.998 1.998 0 01-1.627-.837l-7.102-9.942-2.735 2.192v6.587a2 2 0 01-2 2h-6.188a2 2 0 01-2-2v-22.95a2 2 0 012-2h6.188a2 2 0 012 2v4.435l7.27-5.98a2 2 0 011.27-.455h9.86c.862 0 1.627.553 1.899 1.371zm-11.759.63h9.86l-10.37 7.717 12.274 15.232h-8.84l-8.33-11.662-5.134 4.114v7.548h-6.188v-22.95h6.188v8.67l10.54-8.67zM76.625 95.27a2 2 0 01-.896 2.61l-5.372 2.788a2.001 2.001 0 01-2.831-1.183c-.402-1.296-2.101-2.706-5.06-2.706-2.08 0-3.444.564-4.267 1.315-.803.73-1.315 1.84-1.315 3.417 0 1.635.494 2.728 1.266 3.433.796.727 2.17 1.299 4.418 1.299 1.587 0 2.655-.347 3.386-.796.73-.448 1.249-1.073 1.62-1.826a2 2 0 012.642-.929l5.304 2.482a2 2 0 01.993 2.594c-2.245 5.279-7.297 7.983-14.421 7.983-4.213 0-8.134-1.221-11.04-3.671-2.942-2.483-4.696-6.111-4.696-10.569 0-4.489 1.895-8.108 4.927-10.564 2.992-2.422 6.99-3.642 11.183-3.642 6.544 0 12.04 3.352 14.16 7.965zm-2.902 13.48c-2.146 3.214-5.995 5.001-11.631 5.001-7.684 0-13.736-4.454-13.736-12.24 0-7.752 6.46-12.206 14.11-12.206 4.985 0 9.1 2.149 11.31 5.083.236.313.45.636.642.965.143.247.273.498.39.752l-5.372 2.788a4.785 4.785 0 00-.768-1.48c-1.216-1.6-3.471-2.634-6.202-2.634-4.862 0-7.582 2.652-7.582 6.732 0 4.114 2.55 6.732 7.684 6.732 3.774 0 5.78-1.666 6.8-3.74l5.304 2.482a10.43 10.43 0 01-.949 1.765zm32.691-17.828c3.15 2.446 5.13 6.07 5.13 10.589 0 4.533-1.977 8.167-5.128 10.619-3.104 2.415-7.253 3.621-11.628 3.621s-8.524-1.206-11.628-3.621c-3.15-2.452-5.128-6.086-5.128-10.619 0-4.518 1.98-8.143 5.13-10.59 3.103-2.409 7.251-3.616 11.626-3.616 4.375 0 8.523 1.207 11.626 3.617zm-6.702 13.969c.857-.723 1.372-1.802 1.372-3.38 0-1.556-.512-2.64-1.375-3.37-.908-.768-2.461-1.362-4.921-1.362-2.44 0-3.985.593-4.89 1.36-.86.731-1.372 1.815-1.372 3.372 0 1.578.515 2.659 1.37 3.382.902.764 2.446 1.35 4.892 1.35 2.466 0 4.018-.588 4.924-1.352zm14.027-14.838a2 2 0 012-2h17.918c3.13 0 5.789.748 7.69 2.398 1.944 1.687 2.81 4.068 2.81 6.708 0 2.658-.895 5.039-2.89 6.713-1.941 1.629-4.651 2.359-7.848 2.359h-9.492v6.772a2 2 0 01-2 2h-6.188a2 2 0 01-2-2v-22.95zm8.188 22.95h-6.188v-22.95h17.918c5.678 0 8.5 2.72 8.5 7.106 0 4.386-2.89 7.072-8.738 7.072h-11.492v8.772zm31.452-24.95a2 2 0 012 2v22.95a2 2 0 01-2 2h-6.188a2 2 0 01-2-2v-22.95a2 2 0 012-2h6.188zm-6.188 2h6.188v22.95h-6.188v-22.95zm37.61-2a2 2 0 012 2v5.27a2 2 0 01-2 2h-.728c.281.345.45.785.45 1.264v5.304c0 .48-.169.92-.45 1.264h1.204a2 2 0 012 2v5.848a2 2 0 01-2 2h-24.65a2 2 0 01-2-2v-22.95a2 2 0 012-2h24.174zm.476 19.102v5.848h-24.65v-22.95h24.174v5.27h-17.952v3.264h15.674v5.304h-15.674v3.264h18.428zm2.7-17.102a2 2 0 012-2h12.988c4.258 0 8.493.579 11.709 2.608 3.394 2.14 5.353 5.697 5.353 10.85 0 3.012-1.046 6.423-3.709 9.086-2.685 2.685-6.808 4.406-12.571 4.406h-13.77a2 2 0 01-2-2v-22.95zm15.77 22.95c10.71 0 14.28-6.358 14.28-11.492 0-9.146-6.766-11.458-15.062-11.458h-12.988v22.95h13.77zm4.569-14.525c-.911-.69-2.562-1.257-5.351-1.257h-4.766v7.866h4.732c2.672 0 4.365-.466 5.336-1.116.835-.558 1.3-1.353 1.3-2.698 0-1.296-.43-2.174-1.251-2.795zm23.252-9.773a2 2 0 01.514 1.53l-1.496 16.355c-.015.165-.05.325-.103.476.98.826 1.641 2.002 1.641 3.489 0 3.088-2.923 4.89-5.604 4.89-2.639 0-5.536-1.823-5.536-4.89 0-1.432.617-2.581 1.537-3.404a2.037 2.037 0 01-.135-.566l-1.462-16.354a2 2 0 011.992-2.178h7.174a2 2 0 011.478.652zm-7.19 17.702h4.216l1.496-16.354h-7.174l1.462 16.354zm-.218 1.988c-.72.524-1.176 1.289-1.176 2.16 0 1.598 1.598 2.89 3.536 2.89 2.006 0 3.604-1.292 3.604-2.89 0-.879-.464-1.65-1.205-2.174a3.423 3.423 0 00-.325-.203 4.27 4.27 0 00-2.074-.513c-.801 0-1.545.216-2.142.584a3.31 3.31 0 00-.218.146zM94.788 89.306c8.058 0 14.756 4.454 14.756 12.206 0 7.786-6.698 12.24-14.756 12.24s-14.756-4.454-14.756-12.24c0-7.752 6.698-12.206 14.756-12.206zm0 18.938c5.508 0 8.296-2.618 8.296-6.732 0-4.08-2.788-6.732-8.296-6.732-5.474 0-8.262 2.652-8.262 6.732 0 4.114 2.788 6.732 8.262 6.732zm40.807-11.288c0-1.02-.816-1.496-1.972-1.496h-11.696v3.162h11.73c1.122 0 1.938-.51 1.938-1.666zm75.972 4.318c0-3.638-2.584-6.052-8.602-6.052h-6.766v11.866h6.732c5.678 0 8.636-1.938 8.636-5.814z" clip-rule="evenodd"/>
</svg>
