<svg xmlns="http://www.w3.org/2000/svg" viewBox="0 0 1158 190">
  <g clip-path="url(#clip0)">
    <path fill="#FCF9F7" fill-rule="evenodd" d="M1157-1H0v192h1157V-1zm-15 15H15v162h1127V14z" clip-rule="evenodd"/>
    <path fill="#353535" d="M15 16h1127v162H15z"/>
    <path fill="#FCF9F7" d="M179.484 63.583a2.204 2.204 0 00-2.068-2.963h-17.708c-.936 0-1.77.591-2.079 1.474l-14.217 40.541c-.687 1.959-3.455 1.967-4.154.012l-14.501-40.565a2.203 2.203 0 00-2.075-1.462h-15.95c-.938 0-1.773.593-2.081 1.478L90.59 102.456c-.69 1.98-3.494 1.969-4.168-.016L72.737 62.115a2.204 2.204 0 00-2.087-1.495H52.847a2.204 2.204 0 00-2.07 2.96l25.149 68.725a2.204 2.204 0 002.07 1.447h19.648c.936 0 1.77-.592 2.08-1.476l12.709-36.325c.685-1.959 3.45-1.97 4.153-.018l13.083 36.361a2.204 2.204 0 002.073 1.458h20.424c.924 0 1.749-.577 2.068-1.444l25.25-68.725zM271.448 62.824a2.203 2.203 0 00-2.203-2.204h-15.312a2.203 2.203 0 00-2.203 2.204v21.161a2.204 2.204 0 01-2.204 2.204h-38.821a2.204 2.204 0 01-2.204-2.204V62.824a2.204 2.204 0 00-2.204-2.204h-15.311a2.204 2.204 0 00-2.204 2.204v68.724c0 1.217.987 2.204 2.204 2.204h15.311a2.204 2.204 0 002.204-2.204v-25.387c0-1.217.987-2.204 2.204-2.204h38.821c1.217 0 2.204.987 2.204 2.204v25.387c0 1.217.986 2.204 2.203 2.204h15.312a2.203 2.203 0 002.203-2.204V62.823zM376.856 97.132c0-24.703-21.343-38.896-47.021-38.896-25.677 0-47.021 14.193-47.021 38.896 0 24.81 21.344 39.003 47.021 39.003 25.678 0 47.021-14.193 47.021-39.003zm-20.585 0c0 13.109-8.884 21.451-26.436 21.451-17.443 0-26.327-8.342-26.327-21.451 0-13.002 8.884-21.452 26.327-21.452 17.552 0 26.436 8.45 26.436 21.451zM404.459 61.22a2.204 2.204 0 00-2.061-2.984h-9.587a2.204 2.204 0 00-2.17 1.819l-3.985 22.462a2.204 2.204 0 002.17 2.588h5.058c.916 0 1.736-.566 2.061-1.422l8.514-22.462zM488.225 80.438c1.354-.053 2.347-1.307 1.992-2.615-3.545-13.058-13.664-19.587-37.224-19.587-29.794 0-40.52 9.318-40.52 23.727 0 20.369 15.818 22.753 29.252 23.294 14.952.542 30.445-1.083 30.445 5.634 0 6.284-8.668 8.668-18.419 8.668-7.67 0-17.689-1.567-20.467-6.102-.555-.906-1.43-1.699-2.493-1.699h-17.535c-1.294 0-2.317 1.115-2.125 2.395 1.395 9.304 5.834 13.886 14.343 18.19 5.309 2.492 12.459 3.684 26.76 3.684 28.928 0 40.629-10.726 40.629-28.061 0-14.951-10.076-20.044-31.744-20.044-6.826 0-10.401.109-13.977.109-7.367 0-13.651-.109-13.651-6.393 0-5.092 6.826-7.475 19.61-7.475 7.803 0 14.128 1.016 17.27 5.692.486.723 1.276 1.22 2.147 1.187l15.707-.605z"/>
    <path fill="#FFB906" fill-rule="evenodd" d="M531.877 108.847a2.204 2.204 0 01-.451-3.084l8.775-11.781a2.204 2.204 0 013.084-.451l28.236 21.03a2.203 2.203 0 003.083-.451l45.411-60.971a2.203 2.203 0 013.083-.451l11.782 8.775a2.204 2.204 0 01.451 3.083l-56.818 76.288a2.203 2.203 0 01-3.083.451l-43.553-32.438z" clip-rule="evenodd"/>
    <g>
      <path fill="#FCF9F7" d="M757.036 63.8a2.204 2.204 0 00-2.204-2.203h-16.394a2.204 2.204 0 00-2.204 2.203v37.997c0 1.976-2.4 2.954-3.78 1.54l-40.1-41.076a2.206 2.206 0 00-1.577-.664H672.89a2.203 2.203 0 00-2.203 2.203v68.725c0 1.217.986 2.203 2.203 2.203h16.395a2.203 2.203 0 002.203-2.203v-39.93c0-1.993 2.436-2.962 3.805-1.513l40.614 42.957c.416.44.995.689 1.601.689h17.324a2.203 2.203 0 002.204-2.203V63.8zM845.618 63.8a2.204 2.204 0 00-2.204-2.203H770.79a2.204 2.204 0 00-2.204 2.203v68.725c0 1.217.987 2.203 2.204 2.203h74.141a2.203 2.203 0 002.204-2.203v-14.228a2.204 2.204 0 00-2.204-2.204h-54.315a2.203 2.203 0 01-2.203-2.203v-5.994c0-1.217.986-2.204 2.203-2.204h45.539a2.203 2.203 0 002.204-2.203V90.994a2.204 2.204 0 00-2.204-2.203h-45.539a2.203 2.203 0 01-2.203-2.204v-5.993c0-1.218.986-2.204 2.203-2.204h52.798a2.204 2.204 0 002.204-2.204V63.8zM881.624 62.382a2.202 2.202 0 00-1.686-.785H858.44c-1.899 0-2.909 2.24-1.652 3.662l27.417 31.042a2.204 2.204 0 01-.023 2.944l-28.998 31.795c-1.291 1.415-.287 3.688 1.628 3.688h19.475c.632 0 1.233-.271 1.651-.744l18.345-20.745a2.204 2.204 0 013.336.039l17.413 20.667a2.202 2.202 0 001.685.783h21.594c1.865 0 2.887-2.171 1.698-3.608l-29.025-35.076a2.204 2.204 0 01.106-2.928l26.603-27.792c1.342-1.401.349-3.727-1.591-3.727h-19.217c-.622 0-1.214.262-1.632.722l-16.826 18.537a2.203 2.203 0 01-3.318-.062l-15.485-18.412zM1024.27 63.8c0-1.217-.98-2.203-2.2-2.203h-72.624a2.204 2.204 0 00-2.204 2.203v13.903c0 1.217.987 2.204 2.204 2.204h24.195c1.217 0 2.204.986 2.204 2.203v50.415c0 1.217.986 2.203 2.203 2.203h15.312a2.203 2.203 0 002.203-2.203V82.11c0-1.217.987-2.203 2.204-2.203h24.303c1.22 0 2.2-.987 2.2-2.204V63.8zM1076.01 112.951c1.5 0 2.55-1.486 2.43-2.986-.02-.24-.02-.474-.02-.698.32-3.575 1.4-5.742 11.59-7.475 11.48-1.95 20.8-6.718 20.8-20.369 0-13-14.3-22.21-30.77-22.21-22.89 0-32.57 4.371-39.73 8.891-.95.602-1.26 1.835-.75 2.835l5.56 10.717c.64 1.228 2.23 1.57 3.37.783 7.34-5.065 16.48-7.841 29.38-7.841 8.24 0 13.98 3.142 13.98 7.15 0 8.343-10.08 7.91-19.18 10.618-8.23 2.383-10.18 6.717-10.18 12.568 0 1.974.2 4.152.61 6.318.19 1.002 1.08 1.699 2.1 1.699h10.81zm6.85 13.976c0-5.2-5.31-9.209-11.38-9.209-6.28 0-11.27 4.009-11.27 9.209 0 5.201 4.77 9.21 11.27 9.21 6.07 0 11.38-4.009 11.38-9.21z"/>
    </g>
  </g>
  <defs>
    <clipPath id="clip0">
      <path fill="#fff" d="M0 0h1157.62v189.509H0z"/>
    </clipPath>
  </defs>
</svg>
