<svg xmlns="http://www.w3.org/2000/svg" viewBox="0 0 146 147">
  <path class="origin-center animate-spin" fill="#F86849" d="M11.875 64.729a1 1 0 01.264-1.722l12.944-4.905a1 1 0 00.485-1.478L18.02 44.938a1 1 0 01.812-1.543l13.776-.385a1 1 0 00.942-1.242l-3.383-13.546a1 1 0 011.272-1.195l13.11 4.16a1 1 0 001.3-.871l1.142-13.923a1 1 0 011.595-.719l11.035 8.244a1 1 0 001.516-.404l5.53-12.788a1 1 0 011.744-.165l7.778 11.436a1 1 0 001.568.109l9.307-10.279a1 1 0 011.706.406l3.685 13.404a1 1 0 001.448.61l12.079-6.67a1 1 0 011.481.933l-.815 13.932a1 1 0 001.169 1.044l13.557-2.346a1 1 0 011.097 1.36l-5.242 12.95a1 1 0 00.764 1.363l13.578 2.243a1 1 0 01.594 1.64l-9.11 10.553a1 1 0 00.278 1.532l12.127 6.605a1 1 0 01.026 1.742l-11.985 6.997a1 1 0 00-.235 1.537l9.347 10.258a1 1 0 01-.545 1.655l-13.546 2.68a1 1 0 00-.723 1.38l5.541 12.792a1 1 0 01-1.057 1.387l-13.628-1.915a1 1 0 00-1.136 1.071l1.134 13.926a1 1 0 01-1.454.97l-12.237-6.289a1 1 0 00-1.427.647l-3.384 13.539a1 1 0 01-1.693.449l-9.535-9.975a1 1 0 00-1.564.15l-7.52 11.69a1 1 0 01-1.75-.122l-5.81-12.589a1 1 0 00-1.53-.365l-10.84 8.591a1 1 0 01-1.615-.68l-1.456-13.855a1 1 0 00-1.327-.839l-12.993 4.571a1 1 0 01-1.308-1.163l3.07-13.628a1 1 0 00-.98-1.219l-13.754.053a1 1 0 01-.858-1.521l7.275-11.916a1 1 0 00-.528-1.467l-13.031-4.483a1 1 0 01-.314-1.715l10.695-8.898a1 1 0 00-.022-1.555L11.875 64.73z"/>
  <path class="origin-center animate-spin" fill="#353535" fill-rule="evenodd" d="M11.784 62.072l12.944-4.905-7.548-11.686c-.846-1.31.065-3.041 1.624-3.085l13.776-.386-3.384-13.545c-.379-1.518 1.054-2.864 2.546-2.391l13.11 4.16 1.143-13.922c.128-1.567 1.93-2.38 3.19-1.439l11.034 8.244 5.53-12.787c.626-1.448 2.602-1.635 3.49-.331l7.777 11.436 9.307-10.279c1.06-1.17 2.993-.71 3.41.813l3.686 13.403 12.079-6.67c1.379-.762 3.056.295 2.964 1.867l-.815 13.932 13.557-2.346c1.545-.268 2.783 1.267 2.194 2.721l-5.242 12.95 13.578 2.244c1.541.255 2.209 2.098 1.188 3.28l-9.11 10.553 12.126 6.605c1.368.745 1.397 2.698.052 3.484l-11.985 6.997 9.347 10.258c1.049 1.151.438 3.007-1.09 3.31l-13.546 2.68 5.542 12.793c.621 1.433-.567 2.992-2.114 2.775l-13.628-1.915 1.134 13.925c.127 1.563-1.513 2.658-2.908 1.941l-12.237-6.289-3.384 13.539c-.382 1.528-2.298 2.036-3.386.897l-9.535-9.975-7.52 11.691c-.855 1.327-2.837 1.189-3.499-.244l-5.81-12.59-10.84 8.591c-1.236.979-3.066.21-3.231-1.359l-1.457-13.855-12.993 4.571c-1.483.521-2.96-.793-2.615-2.326l3.069-13.628-13.755.054c-1.565.006-2.53-1.707-1.714-3.043l7.275-11.916-13.031-4.483c-1.475-.508-1.827-2.432-.629-3.43l10.695-8.897-10.887-8.548c-1.225-.962-.93-2.892.526-3.444zm.355.936a1 1 0 00-.264 1.721l10.888 8.549a1 1 0 01.022 1.555L12.09 83.73a1 1 0 00.314 1.714l13.031 4.484a1 1 0 01.528 1.466l-7.275 11.917a1 1 0 00.858 1.521l13.754-.054a1 1 0 01.98 1.22l-3.07 13.627a1 1 0 001.308 1.163l12.993-4.571a1 1 0 011.327.839l1.456 13.856a1 1 0 001.616.679l10.84-8.59a1 1 0 011.528.364l5.811 12.59a1 1 0 001.75.122l7.52-11.691a1 1 0 011.564-.15l9.535 9.975a1 1 0 001.693-.448l3.384-13.539a1 1 0 011.427-.647l12.237 6.289a1 1 0 001.454-.971l-1.134-13.925a1 1 0 011.136-1.072l13.628 1.916a1 1 0 001.057-1.388l-5.541-12.793a1 1 0 01.723-1.378l13.546-2.68a1 1 0 00.545-1.655l-9.347-10.259a1 1 0 01.235-1.537l11.985-6.997a1 1 0 00-.026-1.742l-12.127-6.605a1 1 0 01-.278-1.532l9.11-10.552a1 1 0 00-.594-1.64l-13.578-2.244a1 1 0 01-.764-1.362l5.242-12.95a1 1 0 00-1.097-1.36l-13.557 2.345a1 1 0 01-1.169-1.044l.815-13.932a1 1 0 00-1.481-.933l-12.08 6.67a1 1 0 01-1.447-.61L88.77 12.234a1 1 0 00-1.706-.406l-9.307 10.278a1 1 0 01-1.568-.109l-7.778-11.436a1 1 0 00-1.745.165l-5.529 12.788a1 1 0 01-1.516.404l-11.035-8.243a1 1 0 00-1.595.719L45.85 30.316a1 1 0 01-1.3.871l-13.11-4.16a1 1 0 00-1.273 1.196l3.384 13.545a1 1 0 01-.942 1.242l-13.776.386a1 1 0 00-.812 1.542l7.548 11.687a1 1 0 01-.485 1.477l-12.944 4.906z" clip-rule="evenodd"/>
  <path fill="#FCF9F7" d="M48.405 71.41c4.559-.632 6.521-3.038 6.048-6.456-.474-3.42-2.967-5.235-7.393-4.622l-13.224 1.832a.75.75 0 00-.64.846l2.272 16.403a.75.75 0 00.846.64l3.338-.462a.75.75 0 00.64-.846l-.742-5.352a.75.75 0 01.64-.846l8.215-1.138zm-.788-6.86c.902-.125 1.589.158 1.699.953.125.901-.456 1.387-1.33 1.508l-8.401 1.163a.75.75 0 01-.846-.64l-.136-.979a.75.75 0 01.64-.845l8.374-1.16zM61.476 59.093a.75.75 0 00-.846-.64l-3.338.462a.75.75 0 00-.64.846l2.272 16.403a.75.75 0 00.846.64l3.338-.462a.75.75 0 00.64-.846l-2.272-16.403zM86.095 60.066c.327-.231.417-.68.169-.995-1.923-2.427-5.661-3.979-9.94-3.386-5.963.826-10.518 4.995-9.68 11.038.84 6.069 6.038 8.887 12.028 8.058 4.802-.666 7.708-2.765 8.858-5.942.137-.38-.089-.785-.474-.904l-3.009-.931c-.39-.121-.8.096-.978.464-.695 1.432-2.074 2.615-4.621 2.968-4.002.554-6.272-1.211-6.716-4.418-.44-3.18 1.393-5.541 5.183-6.066 2.32-.321 4.331.375 5.401 1.696.294.363.827.51 1.208.24l2.571-1.822zM108.652 53.166c.515-.506.086-1.376-.629-1.277l-5.177.717a.747.747 0 00-.448.234l-6.022 6.531a.75.75 0 01-1.294-.405l-.615-4.443a.75.75 0 00-.846-.64l-3.337.463a.75.75 0 00-.64.846l2.271 16.403a.75.75 0 00.846.64l3.338-.462a.75.75 0 00.64-.846l-.663-4.784a.75.75 0 01.198-.618L99.04 62.6a.75.75 0 011.089 0l6.942 7.335c.167.176.408.26.648.227l4.956-.686a.75.75 0 00.411-1.29l-9.503-8.94a.75.75 0 01-.012-1.08l5.081-5zM73 81.726a.75.75 0 00-.847-.64l-7.07.98a.75.75 0 00-.627.568l-2.306 9.653c-.161.674-1.072.788-1.394.175l-4.55-8.667a.75.75 0 00-.767-.394l-7.401 1.025a.75.75 0 00-.64.846l2.275 16.43a.75.75 0 00.846.64l3.39-.47a.75.75 0 00.64-.846l-1.324-9.565c-.114-.826 1.004-1.194 1.402-.46l5.18 9.537c.15.274.453.427.763.385l3.57-.495a.75.75 0 00.624-.559l2.775-10.958c.202-.798 1.357-.734 1.47.081l1.363 9.843a.75.75 0 00.846.64L74.635 99a.75.75 0 00.64-.845l-2.276-16.43zM96.134 78.522a.75.75 0 00-.846-.64l-17.357 2.404a.75.75 0 00-.64.846l2.272 16.403a.75.75 0 00.846.64l17.728-2.456a.75.75 0 00.64-.845l-.426-3.073a.75.75 0 00-.845-.64l-12.879 1.784a.75.75 0 01-.846-.64l-.146-1.059a.75.75 0 01.64-.846l10.732-1.486a.75.75 0 00.64-.846l-.367-2.648a.75.75 0 00-.846-.64l-10.732 1.486a.75.75 0 01-.846-.64l-.146-1.058a.75.75 0 01.64-.846l12.507-1.732a.75.75 0 00.64-.846l-.363-2.622zM103.629 77.553a.75.75 0 00-.852-.709l-3.966.55a.75.75 0 00-.628.911l2.567 11.123a.75.75 0 00.833.574l1.929-.267a.751.751 0 00.647-.778l-.53-11.404zm2.202 15.156c-.177-1.272-1.558-2.08-3.122-1.864-1.51.21-2.62 1.363-2.444 2.635.173 1.245 1.558 2.08 3.068 1.87 1.564-.216 2.67-1.395 2.498-2.641z"/>
  <path fill="#353535" fill-rule="evenodd" d="M54.058 69.895c-1.215 1.344-3.101 2.169-5.516 2.503L40.575 73.5l.707 5.105a1.75 1.75 0 01-1.493 1.973l-3.338.462a1.75 1.75 0 01-1.974-1.493l-2.271-16.403a1.75 1.75 0 011.493-1.974l13.224-1.831c2.357-.327 4.356-.03 5.861.95 1.53.996 2.392 2.593 2.66 4.524.268 1.94-.148 3.711-1.386 5.081zm-5.755-4.328c-.047-.024-.212-.075-.549-.029l-8.126 1.126.067.483 8.153-1.129c.306-.042.426-.132.456-.163a.071.071 0 00.02-.034.452.452 0 00.001-.183.275.275 0 00-.016-.068.117.117 0 00-.006-.003zm.003-.002zm8.849-7.643l3.337-.462a1.75 1.75 0 011.974 1.493l2.272 16.404a1.75 1.75 0 01-1.493 1.973l-3.338.463a1.75 1.75 0 01-1.974-1.494l-2.272-16.403a1.75 1.75 0 011.494-1.974zm19.031-3.23c4.575-.633 8.687 1.01 10.861 3.757.646.815.364 1.908-.374 2.431l-2.571 1.821c-.927.657-2.035.227-2.563-.426-.792-.977-2.412-1.622-4.487-1.335-1.72.239-2.87.875-3.547 1.687-.667.801-.972 1.89-.783 3.252.193 1.394.76 2.354 1.6 2.932.854.588 2.146.887 3.989.632 2.251-.312 3.324-1.313 3.858-2.414.357-.736 1.235-1.273 2.174-.983l3.008.931c.877.272 1.469 1.232 1.119 2.2-1.316 3.637-4.625 5.894-9.661 6.592-3.179.44-6.225-.077-8.617-1.587-2.412-1.523-4.08-4.01-4.54-7.324-.46-3.325.57-6.179 2.551-8.296 1.964-2.098 4.82-3.431 7.983-3.87zm26.523-3.079l5.177-.717c1.669-.231 2.668 1.799 1.467 2.98l-4.896 4.82 9.314 8.761c1.07 1.008.497 2.807-.959 3.008l-4.956.687a1.749 1.749 0 01-1.511-.53l-6.76-7.144-2.502 2.645.646 4.664a1.75 1.75 0 01-1.493 1.974l-3.338.462a1.75 1.75 0 01-1.973-1.493l-2.272-16.403a1.75 1.75 0 011.493-1.974l3.338-.462a1.75 1.75 0 011.973 1.493L96 58.302l5.662-6.142a1.75 1.75 0 011.047-.547zm-37.764 29.46l7.071-.98a1.75 1.75 0 011.974 1.494l2.275 16.43a1.75 1.75 0 01-1.493 1.973l-3.417.473a1.75 1.75 0 01-1.974-1.493l-1.187-8.574-2.46 9.716a1.748 1.748 0 01-1.457 1.304l-3.57.495a1.75 1.75 0 01-1.778-.898l-4.525-8.33 1.136 8.204a1.75 1.75 0 01-1.493 1.973l-3.39.47a1.75 1.75 0 01-1.974-1.493l-2.276-16.43a1.75 1.75 0 011.494-1.974l7.4-1.025a1.75 1.75 0 011.79.92l4.24 8.077 2.152-9.006a1.75 1.75 0 011.462-1.326zm12.849-1.78l17.357-2.404a1.75 1.75 0 011.973 1.493l.364 2.622a1.75 1.75 0 01-1.494 1.974l-12.26 1.698.078.563 10.484-1.452a1.75 1.75 0 011.974 1.493l.367 2.649a1.75 1.75 0 01-1.493 1.974l-10.485 1.452.078.563 12.631-1.75a1.75 1.75 0 011.974 1.494l.075.542c.212-.587.605-1.092 1.103-1.484a1.745 1.745 0 01-.745-1.07L97.21 78.528a1.75 1.75 0 011.465-2.127l3.965-.55a1.75 1.75 0 011.989 1.653l.529 11.405c.021.447-.129.866-.394 1.19 1.053.409 1.888 1.245 2.058 2.47.275 1.984-1.453 3.507-3.351 3.77-1.394.193-2.905-.326-3.687-1.432a1.75 1.75 0 01-1.509 1.8l-17.728 2.456a1.75 1.75 0 01-1.974-1.493L76.3 81.267a1.75 1.75 0 011.493-1.974zm25.188 11.523a3.767 3.767 0 00-.534.074c-1.375.298-2.349 1.39-2.183 2.588.173 1.245 1.558 2.08 3.068 1.87 1.564-.216 2.67-1.395 2.497-2.641-.165-1.198-1.399-1.984-2.848-1.891zm.53-1.083a.75.75 0 00.646-.778l-.529-11.404a.75.75 0 00-.852-.709l-3.966.55a.75.75 0 00-.628.911l2.567 11.123a.75.75 0 00.833.574l1.929-.267zM86.263 59.069c.249.314.158.764-.168.995l-2.571 1.821c-.382.27-.914.124-1.208-.239-1.07-1.321-3.082-2.017-5.401-1.696-3.79.525-5.624 2.885-5.184 6.066.445 3.206 2.715 4.972 6.717 4.418 2.547-.353 3.926-1.536 4.62-2.968.18-.368.589-.585.98-.464l3.007.93c.386.12.612.525.474.905-1.149 3.177-4.056 5.276-8.858 5.941-5.99.83-11.188-1.988-12.028-8.058-.837-6.042 3.718-10.211 9.68-11.037 4.28-.593 8.018.959 9.94 3.386zM48.405 71.407c4.559-.631 6.521-3.037 6.048-6.456-.474-3.418-2.967-5.234-7.393-4.62l-13.224 1.83a.75.75 0 00-.64.846l2.272 16.404a.75.75 0 00.846.64l3.337-.463a.75.75 0 00.64-.845l-.74-5.352a.75.75 0 01.64-.846l8.214-1.138zm-.788-6.86c.901-.124 1.589.159 1.699.954.125.901-.456 1.387-1.331 1.508l-8.4 1.163a.75.75 0 01-.846-.64l-.136-.979a.75.75 0 01.64-.846l8.374-1.16zm13.858-5.456a.75.75 0 00-.845-.64l-3.338.462a.75.75 0 00-.64.846l2.272 16.403a.75.75 0 00.846.64l3.337-.462a.75.75 0 00.64-.846l-2.272-16.403zm47.177-5.927c.514-.507.086-1.376-.629-1.277l-5.177.717a.752.752 0 00-.449.234l-6.02 6.531a.75.75 0 01-1.295-.405l-.615-4.443a.75.75 0 00-.846-.64l-3.338.463a.75.75 0 00-.64.845l2.272 16.404a.75.75 0 00.846.64l3.338-.463a.75.75 0 00.64-.845l-.663-4.784a.75.75 0 01.198-.619L99.04 62.6a.75.75 0 011.089 0l6.942 7.335c.167.176.408.26.648.227l4.955-.686a.75.75 0 00.411-1.29l-9.502-8.94a.75.75 0 01-.012-1.08l5.081-5zm-36.499 27.92a.75.75 0 01.846.64l2.276 16.43a.75.75 0 01-.64.845l-3.418.474a.75.75 0 01-.845-.64l-1.364-9.843c-.112-.816-1.267-.88-1.47-.08l-2.774 10.957a.75.75 0 01-.624.559l-3.57.494a.75.75 0 01-.762-.384l-5.181-9.538c-.398-.733-1.517-.366-1.402.46l1.325 9.566a.75.75 0 01-.64.846l-3.39.469a.75.75 0 01-.847-.64l-2.275-16.43a.75.75 0 01.64-.845l7.401-1.025a.75.75 0 01.767.394l4.55 8.666c.322.614 1.232.5 1.393-.174l2.306-9.653a.75.75 0 01.627-.569l7.071-.98zm23.98-2.564a.75.75 0 00-.845-.64l-17.357 2.404a.75.75 0 00-.64.845l2.272 16.404a.75.75 0 00.845.64l17.729-2.456a.75.75 0 00.64-.846L98.35 91.8a.75.75 0 00-.846-.64l-12.878 1.784a.75.75 0 01-.846-.64l-.147-1.059a.75.75 0 01.64-.846l10.732-1.486a.75.75 0 00.64-.846l-.367-2.648a.75.75 0 00-.845-.64l-10.732 1.486a.75.75 0 01-.846-.64l-.146-1.058a.75.75 0 01.64-.846l12.507-1.733a.75.75 0 00.64-.845l-.363-2.622z" clip-rule="evenodd"/>
</svg>
