<svg xmlns="http://www.w3.org/2000/svg" viewBox="0 0 146 147">
  <path class="origin-center animate-spin" fill="#F86849" d="M11.875 64.729a1 1 0 01.264-1.722l12.944-4.905a1 1 0 00.485-1.478L18.02 44.938a1 1 0 01.812-1.543l13.776-.385a1 1 0 00.942-1.242l-3.383-13.546a1 1 0 011.272-1.195l13.11 4.16a1 1 0 001.3-.871l1.142-13.923a1 1 0 011.595-.719l11.035 8.244a1 1 0 001.516-.404l5.53-12.788a1 1 0 011.744-.165l7.778 11.436a1 1 0 001.568.109l9.307-10.279a1 1 0 011.706.406l3.685 13.404a1 1 0 001.448.61l12.079-6.67a1 1 0 011.481.933l-.815 13.932a1 1 0 001.169 1.044l13.557-2.346a1 1 0 011.097 1.36l-5.242 12.95a1 1 0 00.764 1.363l13.578 2.243a1 1 0 01.594 1.64l-9.11 10.553a1 1 0 00.278 1.532l12.127 6.605a1 1 0 01.026 1.742l-11.985 6.997a1 1 0 00-.235 1.537l9.347 10.258a1 1 0 01-.545 1.655l-13.546 2.68a1 1 0 00-.723 1.38l5.541 12.792a1 1 0 01-1.057 1.387l-13.628-1.915a1 1 0 00-1.136 1.071l1.134 13.926a1 1 0 01-1.454.97l-12.237-6.289a1 1 0 00-1.427.647l-3.384 13.539a1 1 0 01-1.693.449l-9.535-9.975a1 1 0 00-1.564.15l-7.52 11.69a1 1 0 01-1.75-.122l-5.81-12.589a1 1 0 00-1.53-.365l-10.84 8.591a1 1 0 01-1.615-.68l-1.456-13.855a1 1 0 00-1.327-.839l-12.993 4.571a1 1 0 01-1.308-1.163l3.07-13.628a1 1 0 00-.98-1.219l-13.754.053a1 1 0 01-.858-1.521l7.275-11.916a1 1 0 00-.528-1.467l-13.031-4.483a1 1 0 01-.314-1.715l10.695-8.898a1 1 0 00-.022-1.555L11.875 64.73z"/>
  <path class="origin-center animate-spin" fill="#353535" fill-rule="evenodd" d="M11.784 62.072l12.944-4.905-7.548-11.686c-.846-1.31.065-3.041 1.624-3.085l13.776-.386-3.384-13.545c-.379-1.518 1.054-2.864 2.546-2.391l13.11 4.16 1.143-13.922c.128-1.567 1.93-2.38 3.19-1.439l11.034 8.244 5.53-12.787c.626-1.448 2.602-1.635 3.49-.331l7.777 11.436 9.307-10.279c1.06-1.17 2.993-.71 3.41.813l3.686 13.403 12.079-6.67c1.379-.762 3.056.295 2.964 1.867l-.815 13.932 13.557-2.346c1.545-.268 2.783 1.267 2.194 2.721l-5.242 12.95 13.578 2.244c1.541.255 2.209 2.098 1.188 3.28l-9.11 10.553 12.126 6.605c1.368.745 1.397 2.698.052 3.484l-11.985 6.997 9.347 10.258c1.049 1.151.438 3.007-1.09 3.31l-13.546 2.68 5.542 12.793c.621 1.433-.567 2.992-2.114 2.775l-13.628-1.915 1.134 13.925c.127 1.563-1.513 2.658-2.908 1.941l-12.237-6.289-3.384 13.539c-.382 1.528-2.298 2.036-3.386.897l-9.535-9.975-7.52 11.691c-.855 1.327-2.837 1.189-3.499-.244l-5.81-12.59-10.84 8.591c-1.236.979-3.066.21-3.231-1.359l-1.457-13.855-12.993 4.571c-1.483.521-2.96-.793-2.615-2.326l3.069-13.628-13.755.054c-1.565.006-2.53-1.707-1.714-3.043l7.275-11.916-13.031-4.483c-1.475-.508-1.827-2.432-.629-3.43l10.695-8.897-10.887-8.548c-1.225-.962-.93-2.892.526-3.444zm.355.936a1 1 0 00-.264 1.721l10.888 8.549a1 1 0 01.022 1.555L12.09 83.73a1 1 0 00.314 1.714l13.031 4.484a1 1 0 01.528 1.466l-7.275 11.917a1 1 0 00.858 1.521l13.754-.054a1 1 0 01.98 1.22l-3.07 13.627a1 1 0 001.308 1.163l12.993-4.571a1 1 0 011.327.839l1.456 13.856a1 1 0 001.616.679l10.84-8.59a1 1 0 011.528.364l5.811 12.59a1 1 0 001.75.122l7.52-11.691a1 1 0 011.564-.15l9.535 9.975a1 1 0 001.693-.448l3.384-13.539a1 1 0 011.427-.647l12.237 6.289a1 1 0 001.454-.971l-1.134-13.925a1 1 0 011.136-1.072l13.628 1.916a1 1 0 001.057-1.388l-5.541-12.793a1 1 0 01.723-1.378l13.546-2.68a1 1 0 00.545-1.655l-9.347-10.259a1 1 0 01.235-1.537l11.985-6.997a1 1 0 00-.026-1.742l-12.127-6.605a1 1 0 01-.278-1.532l9.11-10.552a1 1 0 00-.594-1.64l-13.578-2.244a1 1 0 01-.764-1.362l5.242-12.95a1 1 0 00-1.097-1.36l-13.557 2.345a1 1 0 01-1.169-1.044l.815-13.932a1 1 0 00-1.481-.933l-12.08 6.67a1 1 0 01-1.447-.61L88.77 12.234a1 1 0 00-1.706-.406l-9.307 10.278a1 1 0 01-1.568-.109l-7.778-11.436a1 1 0 00-1.745.165l-5.529 12.788a1 1 0 01-1.516.404l-11.035-8.243a1 1 0 00-1.595.719L45.85 30.316a1 1 0 01-1.3.871l-13.11-4.16a1 1 0 00-1.273 1.196l3.384 13.545a1 1 0 01-.942 1.242l-13.776.386a1 1 0 00-.812 1.542l7.548 11.687a1 1 0 01-.485 1.477l-12.944 4.906z" clip-rule="evenodd"/>
  <path fill="#FCF9F7" d="M55.128 61.332c-.858-.632-3.464-1.506-6.33-1.506-3.627 0-6.703 2.121-6.703 5.813 0 3.707 2.882 5.828 6.541 5.828 3.416 0 5.44-.583 6.347-1.117v-5.246h-5.181v2.413h2.315v.76c-.534.502-2.12.567-3.254.567-2.445 0-3.74-1.246-3.74-3.205 0-1.943 1.376-3.206 3.675-3.206 1.668 0 3.157.372 4.922 1.473l1.408-2.574zM71.185 65.639c0-3.692-3.19-5.813-7.027-5.813s-7.027 2.121-7.027 5.813c0 3.707 3.19 5.828 7.027 5.828s7.027-2.12 7.027-5.828zm-3.076 0c0 1.959-1.328 3.205-3.95 3.205-2.608 0-3.935-1.246-3.935-3.205 0-1.943 1.327-3.206 3.934-3.206 2.623 0 3.95 1.263 3.95 3.206zM87.233 65.639c0-3.692-3.19-5.813-7.027-5.813s-7.026 2.121-7.026 5.813c0 3.707 3.19 5.828 7.026 5.828 3.837 0 7.027-2.12 7.027-5.828zm-3.076 0c0 1.959-1.328 3.205-3.95 3.205-2.607 0-3.935-1.246-3.935-3.205 0-1.943 1.328-3.206 3.934-3.206 2.623 0 3.95 1.263 3.95 3.206zM89.535 60.182v10.929h6.558c5.099 0 6.8-3.028 6.8-5.472 0-4.356-3.222-5.457-7.173-5.457h-6.185zm6.185 2.461c2.866 0 4.096 1.15 4.096 2.882 0 1.846-1.408 2.769-4.112 2.769h-3.206v-5.65h3.222zM44.097 80.064c-.825-1.797-3.06-3.238-5.877-3.238-3.643 0-6.719 2.121-6.719 5.813 0 3.707 2.882 5.828 6.54 5.828 3.142 0 5.117-1.166 5.991-3.222l-2.525-1.182c-.486.988-1.441 1.781-3.238 1.781-2.445 0-3.66-1.246-3.66-3.205 0-1.943 1.296-3.206 3.611-3.206 1.668 0 2.963.81 3.32 1.959l2.557-1.328zM58.598 77.182h-2.947v3.821h-6.46v-3.82h-2.946V88.11h2.947v-4.452h6.46v4.452h2.946V77.182zM74.948 82.639c0-3.692-3.19-5.813-7.027-5.813s-7.027 2.121-7.027 5.813c0 3.707 3.19 5.828 7.027 5.828s7.027-2.12 7.027-5.828zm-3.076 0c0 1.959-1.328 3.205-3.95 3.205-2.608 0-3.935-1.246-3.935-3.205 0-1.943 1.327-3.206 3.934-3.206 2.623 0 3.95 1.263 3.95 3.206zM80.391 77.182h-2.947v10.929h2.947V77.182zM95.451 80.064c-.825-1.797-3.06-3.238-5.877-3.238-3.643 0-6.719 2.121-6.719 5.813 0 3.707 2.882 5.828 6.541 5.828 3.141 0 5.116-1.166 5.99-3.222l-2.525-1.182c-.486.988-1.441 1.781-3.238 1.781-2.445 0-3.66-1.246-3.66-3.205 0-1.943 1.296-3.206 3.611-3.206 1.668 0 2.963.81 3.32 1.959l2.557-1.328zM109.11 77.182H97.599v10.929h11.738v-2.785h-8.775v-1.554h7.464v-2.526h-7.464v-1.554h8.548v-2.51zM113.729 77.182h-3.417l.697 7.788h2.007l.713-7.788zm.016 9.763c0-.777-.761-1.376-1.716-1.376-.923 0-1.684.6-1.684 1.376 0 .761.761 1.376 1.684 1.376.955 0 1.716-.615 1.716-1.376z"/>
  <path fill="#353535" fill-rule="evenodd" d="M55.925 60.987a.25.25 0 01.071.321l-1.464 2.676a.25.25 0 00.22.37h.73a.25.25 0 01.25.25v6.032a.25.25 0 01-.122.215l-.246.145c-1.074.633-3.254 1.221-6.728 1.221-1.968 0-3.787-.57-5.126-1.7-1.354-1.143-2.165-2.813-2.165-4.878 0-2.076.874-3.742 2.269-4.873 1.38-1.12 3.232-1.69 5.184-1.69 1.506 0 2.939.23 4.111.541 1.149.306 2.122.712 2.664 1.11l.352.26zm-3.838 3.367c.255 0 .338-.322.106-.43-1.169-.548-2.231-.741-3.395-.741-1.017 0-1.742.278-2.203.686-.45.399-.722.985-.722 1.77 0 .806.26 1.387.7 1.775.451.4 1.187.68 2.29.68a.19.19 0 00.189-.19v-3.3a.25.25 0 01.25-.25h2.785zm.03 3.815c0 .07-.027.136-.083.177-.6.44-2.092.498-3.171.498-2.445 0-3.74-1.246-3.74-3.205 0-1.943 1.376-3.206 3.675-3.206 1.46 0 2.783.285 4.274 1.095.14.075.28.155.422.24a.254.254 0 00.353-.094l1.176-2.15a.233.233 0 00-.076-.313c-1.005-.617-3.463-1.385-6.149-1.385-3.627 0-6.703 2.121-6.703 5.813 0 3.707 2.882 5.828 6.541 5.828 3.268 0 5.262-.533 6.223-1.047a.239.239 0 00.124-.213v-4.853a.25.25 0 00-.25-.25h-4.681a.25.25 0 00-.25.25v1.913c0 .138.112.25.25.25h1.815a.25.25 0 01.25.25v.402zm36.668-8.487a.25.25 0 01.25-.25h6.685c2.017 0 3.986.276 5.468 1.21 1.549.978 2.455 2.601 2.455 4.997 0 1.389-.483 2.959-1.708 4.183-1.232 1.233-3.14 2.039-5.843 2.039h-7.057a.25.25 0 01-.25-.25V59.682zM44.978 80.184a.25.25 0 01-.112.326l-3.512 1.823a.25.25 0 01-.354-.148l-.177-.571c-.227-.73-1.139-1.431-2.603-1.431-1.026 0-1.73.278-2.168.679-.432.392-.693.978-.693 1.777 0 .82.25 1.4.67 1.783.427.392 1.137.672 2.24.672.786 0 1.332-.172 1.718-.409.385-.236.656-.565.847-.953l.216-.44a.25.25 0 01.33-.116l3.407 1.594a.25.25 0 01.124.325l-.188.444c-1.028 2.416-3.342 3.678-6.681 3.678-1.968 0-3.787-.57-5.126-1.7-1.354-1.143-2.165-2.813-2.165-4.878 0-2.076.874-3.742 2.271-4.874 1.382-1.119 3.238-1.689 5.198-1.689 3.053 0 5.588 1.563 6.559 3.675l.199.433zm14.12-3.752a.25.25 0 01.25.25v11.929a.25.25 0 01-.25.25h-3.947a.25.25 0 01-.25-.25v-3.952a.25.25 0 00-.25-.25h-4.46a.25.25 0 00-.25.25v3.952a.25.25 0 01-.25.25h-3.946a.25.25 0 01-.25-.25V76.682a.25.25 0 01.25-.25h3.947a.25.25 0 01.25.25v3.321c0 .138.111.25.25.25h4.46a.25.25 0 00.25-.25v-3.32a.25.25 0 01.25-.25h3.946zm-3.447 1a.25.25 0 01.25-.25h2.447a.25.25 0 01.25.25v10.429a.25.25 0 01-.25.25h-2.447a.25.25 0 01-.25-.25v-3.952a.25.25 0 00-.25-.25h-5.96a.25.25 0 00-.25.25v3.952a.25.25 0 01-.25.25h-2.446a.25.25 0 01-.25-.25V77.432a.25.25 0 01.25-.25h2.447a.25.25 0 01.25.25v3.321c0 .138.111.25.25.25h5.96a.25.25 0 00.25-.25v-3.32zm25.24-1a.25.25 0 01.25.25v11.929a.25.25 0 01-.25.25h-3.947a.25.25 0 01-.25-.25V76.682a.25.25 0 01.25-.25h3.947zm15.44 3.752a.25.25 0 01-.111.326l-3.512 1.823a.25.25 0 01-.354-.148l-.177-.571c-.227-.73-1.139-1.431-2.603-1.431-1.025 0-1.729.278-2.168.679-.431.392-.692.978-.692 1.777 0 .82.25 1.4.668 1.783.429.392 1.138.672 2.24.672.787 0 1.334-.172 1.72-.409.384-.236.655-.565.846-.953l.216-.44a.25.25 0 01.33-.116l3.407 1.594a.25.25 0 01.125.325l-.19.444c-1.027 2.416-3.341 3.678-6.68 3.678-1.968 0-3.787-.57-5.126-1.7-1.354-1.143-2.165-2.813-2.165-4.878 0-2.076.874-3.742 2.272-4.874 1.381-1.119 3.238-1.689 5.197-1.689 3.053 0 5.588 1.563 6.559 3.675l.199.433zm.768-3.752a.25.25 0 00-.25.25v11.929c0 .138.112.25.25.25h12.816a.172.172 0 00.172-.172c0-.158.207-.242.334-.147.453.341 1.037.53 1.608.53 1.208 0 2.466-.807 2.466-2.127 0-.61-.262-1.106-.661-1.464a.265.265 0 01-.091-.222l.782-8.554a.25.25 0 00-.249-.273H97.099zm15.723 9.288a2.098 2.098 0 00-1.565 0c-.54.225-.912.682-.912 1.225 0 .761.761 1.376 1.684 1.376.955 0 1.716-.615 1.716-1.376 0-.543-.372-1-.923-1.225zm-.034-.75a.25.25 0 00.249-.227l.667-7.288a.25.25 0 00-.249-.273h-2.869a.25.25 0 00-.249.273l.651 7.287a.25.25 0 00.249.228h1.551zm-2.495.423a.094.094 0 01-.032.08c-.064.058-.174.014-.174-.072v-.575a.25.25 0 00-.25-.25h-8.498a.027.027 0 01-.027-.027c0-.015.012-.027.027-.027h7.187a.25.25 0 00.25-.25v-3.526a.25.25 0 00-.25-.25h-7.187a.027.027 0 01-.027-.027c0-.015.012-.027.027-.027h8.283a.25.25 0 01.249.228l.422 4.723zm-1.206-.067a.25.25 0 01.25.25v2.285a.25.25 0 01-.25.25H97.849a.25.25 0 01-.25-.25V77.432a.25.25 0 01.25-.25h11.011a.25.25 0 01.25.25v2.01a.25.25 0 01-.25.25h-8.048a.25.25 0 00-.25.25v1.054c0 .138.112.25.25.25h6.964a.25.25 0 01.25.25v2.026a.25.25 0 01-.25.25h-6.964a.25.25 0 00-.25.25v1.054c0 .138.112.25.25.25h8.275zM69.57 60.756c1.453 1.128 2.365 2.796 2.365 4.883 0 2.093-.911 3.766-2.364 4.896-1.435 1.117-3.365 1.682-5.413 1.682s-3.977-.565-5.413-1.682c-1.453-1.13-2.364-2.803-2.364-4.896 0-2.087.912-3.755 2.365-4.883 1.435-1.115 3.364-1.68 5.412-1.68s3.977.565 5.412 1.68zm-2.937 6.647c.462-.39.726-.965.726-1.764 0-.79-.263-1.367-.727-1.76-.48-.406-1.273-.696-2.474-.696-1.192 0-1.98.29-2.46.696-.461.392-.724.97-.724 1.76 0 .8.264 1.375.724 1.764.478.405 1.266.691 2.46.691 1.203 0 1.995-.286 2.475-.691zm18.986-6.647c1.452 1.128 2.364 2.796 2.364 4.883 0 2.093-.911 3.766-2.364 4.896-1.435 1.117-3.365 1.682-5.413 1.682s-3.977-.565-5.413-1.682c-1.453-1.13-2.363-2.803-2.363-4.896 0-2.087.911-3.755 2.364-4.883 1.435-1.115 3.364-1.68 5.412-1.68s3.977.565 5.412 1.68zm-2.938 6.647c.462-.39.726-.965.726-1.764 0-.79-.263-1.367-.727-1.76-.48-.406-1.273-.696-2.474-.696-1.192 0-1.98.29-2.459.696-.462.392-.725.97-.725 1.76 0 .8.264 1.375.724 1.764.478.405 1.266.691 2.46.691 1.204 0 1.996-.286 2.475-.691zm7.104 3.708a.25.25 0 01-.25-.25V60.432a.25.25 0 01.25-.25h5.935c3.95 0 7.173 1.101 7.173 5.457 0 2.444-1.701 5.472-6.8 5.472h-6.308zm8.605-7.078c-.483-.366-1.32-.64-2.67-.64h-2.222a.25.25 0 00-.25.25v3.65c0 .139.112.25.25.25h2.206c1.289 0 2.142-.223 2.653-.565.46-.307.71-.752.71-1.453 0-.67-.227-1.152-.677-1.492zm-54.7 21.88a5.031 5.031 0 00.243-.448.241.241 0 00-.12-.322l-2.084-.976a.264.264 0 00-.338.112c-.516.885-1.458 1.565-3.122 1.565-2.445 0-3.66-1.246-3.66-3.205 0-1.943 1.296-3.206 3.611-3.206 1.32 0 2.408.508 2.98 1.29.09.123.168.254.231.39.066.141.235.213.373.141l2.082-1.08a.24.24 0 00.105-.323 4.284 4.284 0 00-.266-.439c-1.018-1.481-3.038-2.586-5.505-2.586-3.643 0-6.719 2.121-6.719 5.813 0 3.707 2.882 5.828 6.54 5.828 2.784 0 4.652-.915 5.65-2.554zm29.643-8.157c1.453 1.128 2.365 2.796 2.365 4.883 0 2.093-.911 3.766-2.364 4.896-1.435 1.117-3.365 1.682-5.413 1.682s-3.978-.565-5.413-1.682c-1.453-1.13-2.364-2.803-2.364-4.896 0-2.087.912-3.755 2.365-4.883 1.435-1.115 3.364-1.68 5.412-1.68s3.977.565 5.412 1.68zm-2.937 6.647c.462-.39.725-.965.725-1.764 0-.79-.262-1.367-.726-1.76-.48-.406-1.273-.696-2.474-.696-1.192 0-1.98.29-2.46.696-.461.392-.724.97-.724 1.76 0 .8.264 1.375.724 1.764.478.405 1.266.691 2.46.691 1.203 0 1.995-.286 2.475-.691zm7.049-6.97a.25.25 0 01.25-.25h2.446a.25.25 0 01.25.25V87.86a.25.25 0 01-.25.25h-2.447a.25.25 0 01-.25-.25V77.432zm17.6 8.48a5.006 5.006 0 00.342-.668l-2.304-1.078a.264.264 0 00-.338.112c-.516.885-1.458 1.565-3.122 1.565-2.445 0-3.66-1.246-3.66-3.205 0-1.943 1.296-3.206 3.611-3.206 1.32 0 2.408.508 2.98 1.29.09.123.168.254.231.39.066.141.235.213.374.141l2.08-1.08a.24.24 0 00.107-.323 4.287 4.287 0 00-.267-.439c-1.018-1.481-3.038-2.586-5.505-2.586-3.643 0-6.719 2.121-6.719 5.813 0 3.707 2.882 5.828 6.541 5.828 2.783 0 4.65-.915 5.649-2.554zM71.185 65.64c0-3.692-3.19-5.813-7.027-5.813s-7.027 2.121-7.027 5.813c0 3.707 3.19 5.828 7.027 5.828s7.027-2.12 7.027-5.828zm-3.076 0c0 1.959-1.328 3.205-3.95 3.205-2.608 0-3.935-1.246-3.935-3.205 0-1.943 1.327-3.206 3.934-3.206 2.623 0 3.95 1.263 3.95 3.206zm12.097-5.813c3.837 0 7.027 2.121 7.027 5.813 0 3.707-3.19 5.828-7.027 5.828s-7.026-2.12-7.026-5.828c0-3.692 3.19-5.813 7.026-5.813zm0 9.018c2.623 0 3.95-1.246 3.95-3.205 0-1.943-1.327-3.206-3.95-3.206-2.606 0-3.934 1.263-3.934 3.206 0 1.959 1.328 3.205 3.934 3.205zm15.514-6.2c2.866 0 4.096 1.149 4.096 2.881 0 1.846-1.408 2.769-4.112 2.769h-2.956a.25.25 0 01-.25-.25v-5.15a.25.25 0 01.25-.25h2.972zM67.921 76.825c3.837 0 7.027 2.121 7.027 5.813 0 3.707-3.19 5.828-7.027 5.828s-7.027-2.12-7.027-5.828c0-3.692 3.19-5.813 7.027-5.813zm0 9.018c2.623 0 3.95-1.246 3.95-3.205 0-1.943-1.327-3.206-3.95-3.206-2.607 0-3.934 1.263-3.934 3.206 0 1.959 1.327 3.205 3.934 3.205z" clip-rule="evenodd"/>
</svg>